<svg width="320" height="297" viewBox="0 0 320 297" fill="none" xmlns="http://www.w3.org/2000/svg">
<path d="M111.373 99.8843V263.415C111.373 266.472 108.891 268.953 105.839 268.953H23.1566C20.1042 268.953 17.6273 266.472 17.6273 263.415V99.8843C17.6273 96.8218 20.1042 94.3408 23.1566 94.3408H105.839C108.892 94.3416 111.373 96.8225 111.373 99.8843Z" fill="#BFE7FB"/>
<path d="M111.373 99.8843V108.313H17.6273V99.8843C17.6273 96.8218 20.1042 94.3408 23.1566 94.3408H105.839C108.892 94.3416 111.373 96.8225 111.373 99.8843Z" fill="#E94A29"/>
<path d="M30.7999 101.328C30.7999 102.342 29.9797 103.163 28.9681 103.163C27.9565 103.163 27.1355 102.342 27.1355 101.328C27.1355 100.315 27.9558 99.4929 28.9681 99.4929C29.9804 99.4929 30.7999 100.314 30.7999 101.328Z" fill="white"/>
<path d="M36.8622 101.328C36.8622 102.342 36.0419 103.163 35.0296 103.163C34.018 103.163 33.197 102.342 33.197 101.328C33.197 100.315 34.0173 99.4929 35.0296 99.4929C36.0419 99.4922 36.8622 100.314 36.8622 101.328Z" fill="white"/>
<path d="M42.9243 101.328C42.9243 102.342 42.1041 103.163 41.0925 103.163C40.0809 103.163 39.2599 102.342 39.2599 101.328C39.2599 100.315 40.0802 99.4929 41.0925 99.4929C42.1048 99.4929 42.9243 100.314 42.9243 101.328Z" fill="white"/>
<path d="M63.4927 125.779C64.1686 125.69 64.8825 125.753 65.5357 125.53C66.2951 125.272 66.474 124.746 66.3384 123.979C66.268 123.579 66.0789 122.722 65.5738 122.64C65.392 122.61 65.2168 122.706 65.0423 122.767C64.8767 122.824 64.7008 122.85 64.5263 122.842C64.3584 122.834 64.1898 122.795 64.0462 122.709C63.6386 122.461 63.5462 121.911 63.5499 121.433C63.5514 121.219 63.566 120.999 63.6518 120.803C63.7383 120.607 63.9105 120.435 64.1224 120.406C64.1972 120.396 64.2756 120.403 64.343 120.437C64.5835 120.558 64.5578 120.902 64.6568 121.153C64.7609 121.416 65.046 121.594 65.3268 121.572C65.8179 121.533 66.1236 121.02 66.2321 120.598C66.3618 120.092 66.496 119.582 66.8112 119.154C66.9409 118.978 67.0971 118.812 67.2986 118.728C67.5002 118.644 67.7553 118.66 67.9107 118.814C68.1321 119.035 68.0588 119.413 67.9115 119.689C67.5625 120.343 67.2627 121.366 67.3126 122.122C67.347 122.647 67.6857 123.191 68.2032 123.283C68.75 123.38 69.2705 122.937 69.4794 122.422C69.6883 121.907 69.6693 121.333 69.6935 120.777C69.7147 120.295 70.0211 119.646 70.4683 119.825C70.6222 119.887 70.7204 120.038 70.7974 120.184C71.6038 121.73 70.8773 123.88 69.3006 124.618C68.761 124.871 68.1101 125.006 67.778 125.501C67.6124 125.748 67.5537 126.051 67.4079 126.309C66.9578 127.107 65.8809 127.234 64.9668 127.246C64.052 127.259 62.9876 127.326 62.4665 128.078C62.2627 128.373 62.1784 128.733 62.02 129.055C61.8617 129.376 61.5802 129.684 61.2225 129.694C60.2028 129.724 60.2695 128.151 60.5965 127.544C61.1213 126.571 62.4467 125.915 63.4927 125.779Z" fill="white"/>
<path d="M62.8366 133.365C62.8366 133.365 68.6232 134.813 71.3325 145.21C74.0418 155.606 71.0532 159.484 71.0532 159.484L59.2968 161L51.8184 134.786L62.8366 133.365Z" fill="#660814"/>
<path d="M73.3219 167.836C79.1363 170.957 85.3679 183.858 86.614 193.633C87.8602 203.414 86.4081 215.068 89.7302 219.437C90.5219 220.48 91.9425 221.728 93.6688 222.901C99.1776 226.659 107.833 229.592 109.26 222.14C111.13 212.359 102.406 179.764 95.2206 172.012C91.1449 167.611 85.9602 166.906 81.1866 166.512C80.6383 166.462 80.09 166.425 79.5542 166.381C74.3628 165.964 73.3219 167.836 73.3219 167.836Z" fill="#FFD749"/>
<path opacity="0.5" d="M73.3219 167.836C79.1363 170.957 85.3679 183.858 86.614 193.633C87.8602 203.414 86.4081 215.068 89.7302 219.437C90.5219 220.48 91.9425 221.728 93.6688 222.901C95.2888 215.574 96.0556 205.892 93.8872 194.257C90.5658 176.418 84.8577 169.315 81.1874 166.512C80.6391 166.462 80.0908 166.425 79.5549 166.381C74.3628 165.964 73.3219 167.836 73.3219 167.836Z" fill="#C99F2B"/>
<path d="M26.7045 198.838C26.8386 199.308 26.9896 199.824 27.1575 200.374C29.1066 206.753 33.0731 218.187 35.3279 225.334C36.33 228.508 36.9919 230.835 36.9919 231.502C36.9919 233.794 35.001 239.619 32.8209 246.279C30.6328 252.93 28.8845 268.953 28.8845 268.953H100.119C99.7332 257.389 92.5392 237.238 90.7073 230.23C90.4603 229.294 90.3093 228.592 90.2836 228.176C90.1414 225.883 90.9206 219.249 91.2395 211.015C91.3612 208.008 91.4242 204.792 91.3568 201.496C91.3231 199.866 91.26 198.216 91.1552 196.562V196.549C90.2829 182.398 82.4189 166.794 78.4861 166.383C77.0648 166.232 73.879 166.19 70.3868 166.198C68.4875 165.673 66.0062 165.089 64.2073 165.043C60.8911 164.955 50.1631 165.702 50.1631 165.702C50.1631 165.702 49.5554 165.803 48.7337 166.03C47.9119 166.257 46.8769 166.609 46.0295 167.105C33.4572 168.57 22.7204 171.883 22.5533 173.659C22.3363 175.949 24.2986 190.511 26.7045 198.838Z" fill="#FFD749"/>
<path opacity="0.5" d="M68.4385 189.31L91.3568 201.496C91.3231 199.866 91.2601 198.216 91.1553 196.561C86.7702 193.53 79.5806 188.827 73.322 186.03L71.1632 185.006L68.4385 189.31Z" fill="#C99F2B"/>
<path d="M49.7203 160.887L50.1645 165.704L49.3677 166.766C53.0358 173.514 63.6172 181.132 63.6172 181.132C67.6247 174.627 68.4384 166.208 68.4384 166.208L64.2081 165.045L63.7638 163.252L63.5461 162.358L61.3287 153.376L53.0578 151.146L48.7146 149.974L48.7732 150.604L49.4359 157.801L49.7203 160.887Z" fill="#DB9C94"/>
<path d="M48.7726 150.604L49.4352 157.801L49.7204 160.887C54.3613 163.205 59.5805 163.536 63.7646 163.251L63.5469 162.356L61.3295 153.375L53.0586 151.145L48.7726 150.604Z" fill="#DB9C94"/>
<path d="M46.0068 153.143C45.5905 153.32 45.1455 153.374 44.7072 153.328C42.1445 153.091 39.5165 149.63 40.6476 148.04C40.9093 147.67 41.2062 147.452 41.5111 147.35C42.7375 146.894 44.1039 148.188 44.1039 148.188L46.0068 153.143Z" fill="#DB9C94"/>
<path d="M46.0068 153.143C45.5905 153.32 45.1455 153.374 44.7071 153.328C43.1348 151.494 41.9825 148.645 41.5111 147.35C42.7375 146.893 44.1039 148.187 44.1039 148.187L46.0068 153.143Z" fill="#DB9C94"/>
<path d="M65.9197 144.007C67.7054 151.659 64.2939 158.995 58.3042 160.398C52.3146 161.8 46.0098 156.74 44.2241 149.086C43.2513 144.919 43.8165 140.861 45.4966 137.787C45.523 137.731 45.5597 137.672 45.5861 137.616C47.0037 135.122 49.1669 133.31 51.8367 132.685C54.6669 132.023 57.5756 132.807 60.0291 134.624C61.8785 135.984 63.4773 137.931 64.6017 140.279C65.1699 141.432 65.6089 142.674 65.9197 144.007Z" fill="#DB9C94"/>
<path d="M64.6025 140.279C56.0098 143.915 46.6438 141.165 46.6438 141.165L45.4973 137.786L45.4548 137.647L45.5868 137.616L60.0298 134.623C61.8792 135.984 63.4773 137.932 64.6025 140.279Z" fill="#DB9C94"/>
<path d="M48.2096 131.809L48.203 131.827C49.2689 131.236 50.4307 130.818 51.6622 130.612C51.682 130.607 51.6974 130.602 51.7172 130.597C55.9908 129.511 60.411 129.535 62.3536 131.447C63.9919 133.06 63.6071 134.08 63.6071 134.08C63.6071 134.08 71.4725 138.556 54.4023 140.546L54.3987 140.542C50.9519 141.256 48.1547 140.688 48.1547 140.688C47.7354 143.153 44.9674 144.435 44.9674 144.435C44.9674 144.435 45.1939 146.472 45.8705 148.306C46.5471 150.14 46.6424 155.116 46.6424 155.116C45.3369 153.772 43.1825 149.325 43.1825 149.325C42.9127 148.629 42.6965 147.94 42.5198 147.258L41.8894 149.004C41.8872 149.005 37.489 136.789 48.2096 131.809Z" fill="#660814"/>
<path opacity="0.5" d="M39.0481 177.405C39.0481 177.405 41.4972 181.955 43.7527 183.535C46.0083 185.107 45.6102 188.329 48.7198 190.931C51.8235 193.534 56.9144 195.538 56.9144 195.538L58.6781 196.543L56.9144 198.684C56.9144 198.684 72.1571 223.258 90.7088 230.23C90.4596 229.294 90.31 228.595 90.2851 228.177C90.1422 225.886 90.9207 219.251 91.2388 211.018L55.7686 184.796L39.0481 177.405Z" fill="#C99F2B"/>
<path opacity="0.5" d="M27.2074 176.887L27.1575 200.375C29.1081 206.754 33.0716 218.189 35.3272 225.336C36.187 215.917 38.2681 191.037 36.9912 182.505C35.402 171.893 27.1201 172.037 27.1201 172.037L27.2074 176.887Z" fill="#C99F2B"/>
<path d="M25.1161 226.762C25.1161 226.762 28.0504 226.657 30.4357 221.857C31.1819 220.37 31.8695 218.427 32.4017 215.899C32.6026 214.946 32.7917 213.938 32.9676 212.888C35.0011 200.921 35.5501 183.667 34.3596 179.278C32.9214 173.975 29.1155 172.283 27.1238 172.035C25.9964 171.896 21.7287 172.367 18.2277 176.18C17.6281 176.831 17.0497 177.579 16.5212 178.439C14.6476 181.454 13.2893 185.838 13.2893 192.179C13.29 210.906 12.6735 228.802 25.1161 226.762Z" fill="#FFD749"/>
<path d="M53.9068 224.845C53.9068 224.845 43.6054 225.885 36.9912 231.503C36.9912 231.503 53.4831 228.798 68.9575 235.04" stroke="#C99F2B" stroke-width="0.5719" stroke-miterlimit="10" stroke-linecap="round" stroke-linejoin="round"/>
<path d="M0 159.722C0 160.658 2.49232 164.821 3.52737 166.32C4.56168 167.824 8.7246 173.417 8.7246 173.417L9.12337 176.001L10.6686 186.032L20.9011 181.563L19.7106 174.378L19.3184 172.012C19.3184 172.012 19.4057 171.544 19.5303 170.845C19.8228 169.178 20.2904 166.22 20.1468 165.34C19.9408 164.091 18.0715 163.361 18.0715 163.361C18.0715 163.361 17.0306 158.367 15.3175 156.395C13.6037 154.417 5.81444 153.374 4.77353 153.374C4.48105 153.374 4.0317 153.424 3.53983 153.524C2.30027 153.754 0.773352 154.273 0.62308 154.959C0.411965 155.921 0 158.786 0 159.722Z" fill="#DB9C94"/>
<path d="M9.12341 176.001L10.6687 186.031L20.9011 181.562L19.7107 174.377C17.1062 174.178 13.0745 174.272 9.12341 176.001Z" fill="#DB9C94"/>
<path d="M7.5283 156.757C7.5283 156.757 4.646 157.538 2.30908 156.757" stroke="#DB9C94" stroke-width="0.5719" stroke-miterlimit="10" stroke-linecap="round" stroke-linejoin="round"/>
<path d="M4.91869 157.104C4.91869 157.104 2.85446 159.488 2.30908 159.644" stroke="#DB9C94" stroke-width="0.5719" stroke-miterlimit="10" stroke-linecap="round" stroke-linejoin="round"/>
<path d="M3.53979 153.524L3.57058 157.038L3.58305 158.561L3.61457 162.636L19.5302 170.844C19.8227 169.178 20.2904 166.219 20.1467 165.339C19.9407 164.091 18.0715 163.36 18.0715 163.36C18.0715 163.36 17.0306 158.367 15.3175 156.395C13.6037 154.416 5.81441 153.373 4.7735 153.373C4.48102 153.374 4.0324 153.424 3.53979 153.524Z" fill="#DB9C94"/>
<path d="M8.04504 180.32C8.0641 181.419 8.12641 182.668 8.21951 184.034C9.02292 196.368 12.4315 218.133 14.432 223.389C16.9243 229.943 31.5689 232.128 31.9992 217.577C32.3423 206.149 26.7397 186.867 24.3155 179.11C23.6485 176.987 23.2248 175.726 23.2248 175.726C11.9213 174.266 8.04504 180.32 8.04504 180.32Z" fill="#FFD749"/>
<path d="M8.04504 180.32C8.0641 181.419 8.12641 182.668 8.21951 184.034C14.2392 178.479 21.2998 178.691 24.3155 179.11C23.6485 176.987 23.2248 175.726 23.2248 175.726C11.9213 174.266 8.04504 180.32 8.04504 180.32Z" fill="#FFFB9A"/>
<path d="M101.52 200.768C101.52 200.768 96.5856 197.188 91.4192 197.882C91.4192 197.882 99.495 201.977 104.895 208.876" stroke="#C99F2B" stroke-width="0.5719" stroke-miterlimit="10" stroke-linecap="round" stroke-linejoin="round"/>
<path d="M49.271 138.658C49.271 138.658 43.6537 149.891 52.2581 161.906L42.1913 163.204C42.1913 163.204 38.3436 153.821 40.0333 143.943C40.2891 142.447 41.9245 138.177 41.9245 138.177L49.1347 136.028L49.271 138.658Z" fill="#660814"/>
<path d="M40.8961 128.265C40.1344 128.221 39.342 128.349 38.5943 128.155C37.725 127.928 37.4823 127.356 37.571 126.488C37.6172 126.036 37.7579 125.063 38.3158 124.93C38.5166 124.882 38.7204 124.975 38.9198 125.027C39.1089 125.077 39.3076 125.092 39.5026 125.069C39.6888 125.047 39.8742 124.991 40.0274 124.881C40.4628 124.571 40.5208 123.95 40.4775 123.417C40.4577 123.178 40.424 122.933 40.3118 122.721C40.1997 122.509 39.993 122.333 39.754 122.317C39.6697 122.311 39.5825 122.326 39.5099 122.37C39.2519 122.524 39.3076 122.907 39.2182 123.195C39.1236 123.497 38.8194 123.719 38.5042 123.718C37.9522 123.715 37.5695 123.166 37.4141 122.704C37.2272 122.149 37.0366 121.59 36.6496 121.14C36.4905 120.954 36.3021 120.781 36.0705 120.704C35.8388 120.626 35.5544 120.665 35.3946 120.85C35.1652 121.114 35.2781 121.53 35.465 121.826C35.9078 122.528 36.3256 123.646 36.3322 124.494C36.3366 125.083 36.0023 125.718 35.4328 125.863C34.8302 126.016 34.213 125.564 33.9374 125.006C33.6625 124.448 33.6368 123.806 33.5642 123.187C33.5012 122.651 33.1061 121.952 32.6216 122.189C32.4544 122.27 32.3577 122.446 32.2836 122.617C31.5095 124.408 32.4962 126.75 34.3171 127.445C34.9401 127.683 35.6776 127.781 36.0895 128.307C36.2941 128.568 36.385 128.902 36.569 129.179C37.1371 130.032 38.3495 130.086 39.3714 130.025C40.3939 129.965 41.5881 129.952 42.2309 130.75C42.4831 131.063 42.6062 131.458 42.8093 131.804C43.0123 132.149 43.3517 132.47 43.752 132.453C44.8933 132.402 44.6895 130.651 44.2754 130C43.609 128.955 42.0755 128.331 40.8961 128.265Z" fill="white"/>
<path d="M65.8178 133.035C65.8178 133.035 62.6357 124.925 53.7117 125.625C44.787 126.325 40.7223 132.843 40.3771 138.393L45.9306 135.274L55.0715 133.743L65.8178 133.035Z" fill="#ED3A5B"/>
<path d="M39.1053 137.551C51.292 129.264 62.3726 131.193 65.9901 132.164C66.729 132.362 67.2553 133.011 67.3023 133.776L67.3242 134.13C67.3976 135.315 66.32 136.235 65.1611 135.984C60.9505 135.067 51.5039 134.147 41.0039 140.57C39.8647 141.267 38.3942 140.484 38.3114 139.15C38.2726 138.514 38.579 137.909 39.1053 137.551Z" fill="white"/>
<path d="M23.2255 175.726C23.2255 175.726 29.0524 192.871 30.8095 204.877" stroke="#C99F2B" stroke-width="0.5719" stroke-miterlimit="10" stroke-linecap="round" stroke-linejoin="round"/>
<path d="M32.2579 200.768C32.2579 200.768 30.5199 194.769 27.6171 190.301" stroke="#C99F2B" stroke-width="0.5719" stroke-miterlimit="10" stroke-linecap="round" stroke-linejoin="round"/>
<path d="M3.52734 146.82V160.552L13.4483 166.557L15.7661 167.955L26.379 174.377L32.299 169.584L34.5986 167.724L39.9886 163.361L40.7736 148.993L29.4013 142.245L27.3386 141.022L17.642 135.273L11.4537 140.335L9.2421 142.145L4.59904 145.94L3.52734 146.82Z" fill="#ED3A5B"/>
<path d="M3.52734 146.82V160.552L26.379 174.377L27.1077 160.765L26.2727 158.267L4.59904 145.94L3.52734 146.82Z" fill="#EA5475"/>
<path d="M3.52734 146.82L27.1077 160.765L40.7736 148.993L17.642 135.273L3.52734 146.82Z" fill="#F77C9C"/>
<path d="M33.1024 155.602L32.299 169.584L34.5985 167.724L35.1967 153.798L11.4536 140.335L9.24207 142.145L33.1024 155.602Z" fill="#FFD749"/>
<path d="M13.4482 152.687V166.557L15.7661 167.955V154.06L29.4013 142.245L27.3385 141.022L13.4482 152.687Z" fill="#FFD749"/>
<path d="M69.791 188.643L69.1657 185.52C69.1657 185.52 64.3863 186.047 59.1949 197.592L61.3273 198.687C61.3273 198.687 68.2325 191.868 69.791 188.643Z" fill="#B29022"/>
<path d="M46.9943 178.767C46.9943 178.767 41.4393 175.498 39.3641 175.518C37.2889 175.539 36.9649 177.347 38.7286 178.687C40.4923 180.028 41.3704 180.23 42.393 180.661C43.4156 181.092 44.8824 182.834 47.168 183.531L46.9943 178.767Z" fill="#DB9C94"/>
<path d="M46.9943 178.767C46.9943 178.767 41.4393 175.498 39.3641 175.518C37.2889 175.539 36.9649 177.347 38.7286 178.687C40.4923 180.028 41.3704 180.23 42.393 180.661C43.4156 181.092 44.8824 182.834 47.168 183.531L46.9943 178.767Z" fill="#DB9C94"/>
<path d="M34.9417 169.665C37.2661 170.57 40.8243 171.257 40.8243 171.257C40.8243 171.257 42.6811 173.061 43.3291 173.41C43.0798 173.33 38.6802 171.875 37.6334 172.168C36.5551 172.468 36.6548 173.766 37.4025 174.365C38.1502 174.957 39.1039 175.445 41.0537 176.262C43.0109 177.074 45.254 178.759 45.5964 179.683C45.9453 180.607 45.8331 183.266 47.9025 185.9C49.9777 188.528 54.9506 191.056 56.0033 191.43C56.564 191.63 58.0103 192.79 59.524 194.064C60.845 195.181 62.2165 196.385 63.0697 197.11C64.8957 198.652 66.3911 199.794 66.3911 199.794C66.3911 199.794 72.7597 196.385 74.4611 190.181C74.4611 190.181 70.7534 188.003 67.5816 186.03C66.2914 185.225 65.0893 184.458 64.2543 183.889C61.375 181.917 53.629 174.708 51.523 172.598C49.4169 170.489 45.6836 166.344 43.777 165.433C41.8762 164.522 34.1243 161.525 33.5196 162.012C32.9156 162.506 32.3423 164.802 34.4234 165.776C36.2179 166.612 37.0162 166.943 37.1965 167.024C36.9033 166.968 35.2891 166.656 34.4608 166.924C33.5577 167.219 32.6231 168.76 34.9417 169.665Z" fill="#DB9C94"/>
<path d="M59.5248 194.064C60.8457 195.182 62.2172 196.386 63.0705 197.111C64.8965 198.653 66.3919 199.794 66.3919 199.794C66.3919 199.794 72.7605 196.386 74.4619 190.182C74.4619 190.182 70.7542 188.003 67.5823 186.031C66.342 187.91 63.7375 191.281 59.5248 194.064Z" fill="#DB9C94"/>
<path d="M37.2383 167.037C37.2383 167.037 41.6805 167.727 42.8709 168.308C44.0614 168.889 46.7157 171.134 47.6034 171.96C48.4911 172.786 49.8641 174.095 50.2636 174.377" stroke="#DB9C94" stroke-width="0.5719" stroke-miterlimit="10" stroke-linecap="round" stroke-linejoin="round"/>
<path d="M43.3438 173.418C43.3438 173.418 47.0786 174.664 47.5668 175.217C48.055 175.77 48.7176 176.839 48.7176 176.839" stroke="#DB9C94" stroke-width="0.5719" stroke-miterlimit="10" stroke-linecap="round" stroke-linejoin="round"/>
<path d="M43.1627 181.131C43.1627 181.131 42.3703 180.015 43.0674 178.529" stroke="#DB9C94" stroke-width="0.5719" stroke-miterlimit="10" stroke-linecap="round" stroke-linejoin="round"/>
<path d="M59.1949 197.591C59.1949 197.591 60.3722 198.821 62.3976 200.768C69.6759 207.79 87.9476 224.156 102.404 226.653C102.404 226.653 109.054 227.52 109.259 222.14C109.459 216.76 106.511 209.669 102.404 206.118C95.618 200.256 84.5133 192.891 73.1717 187.38C71.8384 186.731 70.4984 186.113 69.165 185.52C69.165 185.52 64.1803 195.095 59.1949 197.591Z" fill="#FFD749"/>
<path d="M59.1949 197.591C59.1949 197.591 60.3722 198.821 62.3976 200.768C67.5633 197.16 71.4711 190.581 73.1725 187.379C71.8391 186.73 70.4991 186.112 69.1657 185.519C69.1657 185.519 64.1803 195.095 59.1949 197.591Z" fill="#FFFB9A"/>
<path d="M213.353 5.87683V169.407C213.353 172.465 210.871 174.946 207.819 174.946H125.136C122.083 174.946 119.607 172.465 119.607 169.407V5.87683C119.607 2.81435 122.083 0.333374 125.136 0.333374H207.819C210.871 0.333374 213.353 2.81435 213.353 5.87683Z" fill="#FFFB9A"/>
<path d="M213.353 5.87683V14.3058H119.607V5.87683C119.607 2.81434 122.083 0.333374 125.136 0.333374H207.819C210.871 0.333374 213.353 2.81434 213.353 5.87683Z" fill="#E94A29"/>
<path d="M130.947 9.15517C131.959 9.15517 132.78 8.33335 132.78 7.31959C132.78 6.30583 131.959 5.48401 130.947 5.48401C129.935 5.48401 129.115 6.30583 129.115 7.31959C129.115 8.33335 129.935 9.15517 130.947 9.15517Z" fill="white"/>
<path d="M137.01 9.15517C138.022 9.15517 138.842 8.33335 138.842 7.31959C138.842 6.30583 138.022 5.48401 137.01 5.48401C135.997 5.48401 135.177 6.30583 135.177 7.31959C135.177 8.33335 135.997 9.15517 137.01 9.15517Z" fill="white"/>
<path d="M144.904 7.31959C144.904 8.33357 144.083 9.15517 143.072 9.15517C142.059 9.15517 141.239 8.33357 141.239 7.31959C141.239 6.30561 142.059 5.48401 143.072 5.48401C144.083 5.48401 144.904 6.30561 144.904 7.31959Z" fill="white"/>
<path d="M262.446 80.9418C262.446 80.9418 260.596 83.3919 259.052 85.2774C258.8 85.5865 258.555 85.8802 258.33 86.1438C256.719 88.0264 253.049 92.1498 249.378 94.5698C249.273 94.6374 249.171 94.7042 249.072 94.7688C245.595 97.0009 243.65 97.1705 243.65 97.1705C243.65 97.1705 235.952 94.9274 238.012 83.1848C238.012 83.1848 239.086 80.3147 240.248 79.5085C240.957 79.0188 242.625 78.3947 243.823 77.9806C244.596 77.7141 245.173 77.5371 245.173 77.5371L251.319 74.7698L255.196 73.0245L262.446 80.9418Z" fill="#DB9C94"/>
<path d="M249.071 94.7681C245.594 97.0002 243.65 97.1698 243.65 97.1698C243.65 97.1698 235.951 94.9267 238.011 83.1841C238.011 83.1841 239.085 80.314 240.247 79.5078C240.956 79.0181 242.624 78.394 243.822 77.9799L243.919 78.0738C243.919 78.0738 239.037 81.1209 241.121 87.9794C242.495 92.5147 246.51 94.169 249.071 94.7681Z" fill="#DB9C94"/>
<path d="M262.446 80.9418C262.446 80.9418 260.596 83.3919 259.052 85.2774C256.483 84.3229 254.952 82.9029 253.384 80.5247C252.081 78.5504 251.536 76.1465 251.319 74.7691L255.196 73.0238L262.446 80.9418Z" fill="#DB9C94"/>
<path d="M240.965 97.6089C240.965 97.6089 236.483 98.1148 233.023 98.7007C232.333 98.8167 231.683 98.9349 231.119 99.0531C227.72 99.7683 223.96 98.6955 223.243 99.0531C222.526 99.4107 215.008 99.0531 212.323 99.0531C209.638 99.0531 204.439 100.486 198.626 101.025C197.882 101.094 197.165 101.113 196.479 101.092C191.785 100.963 188.517 99.0531 188.517 99.0531L183.683 68.0105L188.517 68.3923C188.517 68.3923 189.497 68.5803 190.915 68.86C193.653 69.3982 198.028 70.28 200.152 70.8123C203.374 71.6193 211.966 75.6054 213.577 76.5709C215.189 77.5364 218.411 77.3565 220.022 78.1627C221.633 78.9696 230.405 80.2847 232.553 80.524C232.837 80.5563 233.122 80.5806 233.407 80.5967C235.273 80.7046 237.027 80.524 237.027 80.524C237.027 80.524 235.596 85.2444 235.596 88.4714C235.594 91.6998 240.965 97.6089 240.965 97.6089Z" fill="#37B34A"/>
<path opacity="0.5" d="M196.477 101.091C191.784 100.962 188.516 99.0524 188.516 99.0524L183.682 68.0098L188.516 68.3916C188.516 68.3916 189.496 68.5795 190.913 68.8593C192.315 70.6126 193.975 73.294 194.788 76.8389C195.97 81.9962 196.359 95.0479 196.477 101.091Z" fill="#37B34A"/>
<path opacity="0.5" d="M240.965 97.6089C240.965 97.6089 236.483 98.1148 233.023 98.7007C229.296 89.5294 231.999 83.0535 233.407 80.5975C235.273 80.7054 237.027 80.5248 237.027 80.5248C237.027 80.5248 235.596 85.2452 235.596 88.4721C235.594 91.6998 240.965 97.6089 240.965 97.6089Z" fill="#37B34A"/>
<path d="M235.237 79.8668C235.237 79.8668 232.462 81.4807 232.909 88.4735C233.357 95.4663 235.622 97.5185 236.996 98.1059C238.369 98.6933 239.891 98.8724 240.964 98.8724C242.038 98.8724 246.603 98.6037 249.378 94.5691C249.378 94.5691 246.066 96.0934 245.171 96.0934C244.276 96.0934 240.428 94.9281 239.533 90.3561C238.638 85.784 240.07 81.3911 240.965 80.3155C241.86 79.2398 243.919 78.0746 243.919 78.0746L245.171 77.5364C245.171 77.5364 243.919 77.0878 243.292 77.0878C242.665 77.0878 235.237 79.8668 235.237 79.8668Z" fill="#6BDB78"/>
<path d="M166.372 174.946L166.503 173.652L166.751 174.946H201.47C200.867 170.619 200.101 165.912 199.197 161.939C198.222 157.656 197.086 153.518 195.82 150.347L135.068 148.152C135.068 148.152 134.552 150.321 133.807 153.661C132.743 158.417 131.219 167.089 130.066 174.946H166.372Z" fill="#286375"/>
<path opacity="0.5" d="M199.197 161.939C193.942 163.287 187.234 163.841 178.714 164.127C153.966 164.961 139.359 158.736 133.476 155.195C134.221 151.855 135.068 148.151 135.068 148.151L195.82 150.346C197.086 153.518 198.222 157.656 199.197 161.939Z" fill="#286375"/>
<path d="M96.1018 77.2221C93.6285 77.1201 91.5826 74.7558 91.5826 74.7558C91.5826 74.7558 90.7528 73.8197 89.5821 72.4885C88.0435 70.7484 85.9221 68.3335 84.3189 66.4744C83.3902 65.3988 82.6381 64.5082 82.273 64.0434C80.796 62.1608 76.2314 55.3024 76.2314 55.3024C76.2314 55.3024 76.0972 54.4954 77.3053 51.5372C78.5133 48.579 85.4947 46.6964 85.4947 46.6964C85.903 47.17 86.4103 47.7052 86.9931 48.2831C91.2058 52.4653 99.1886 58.7988 99.1886 58.7988C102.545 60.1432 103.082 61.8921 103.082 61.8921C104.694 71.8431 98.5743 77.3242 96.1018 77.2221Z" fill="#DB9C94"/>
<path d="M96.1018 77.2222C93.6285 77.1201 91.5826 74.7559 91.5826 74.7559C91.5826 74.7559 90.7528 73.8197 89.5822 72.4886C94.4796 71.4262 101.824 68.2469 99.1893 58.7988C102.546 60.1432 103.082 61.8921 103.082 61.8921C104.694 71.8432 98.5743 77.3242 96.1018 77.2222Z" fill="#DB9C94"/>
<path d="M86.8377 51.0879C86.4807 53.0622 84.0638 55.6306 84.0638 55.6306C84.0638 55.6306 84.6547 62.3436 84.3189 66.4744C83.3902 65.3988 82.6381 64.5082 82.273 64.0434C80.796 62.1608 76.2314 55.3024 76.2314 55.3024C76.2314 55.3024 76.0972 54.4954 77.3053 51.5372C78.5133 48.579 85.4947 46.6964 85.4947 46.6964C85.903 47.17 86.4103 47.7052 86.9931 48.2831C87.0041 49.3103 86.9696 50.3566 86.8377 51.0879Z" fill="#DB9C94"/>
<path d="M153.966 69.6457L140.184 99.0531C140.184 99.0531 138.393 97.7969 135.351 94.7498C134.884 94.2821 134.248 93.7652 133.476 93.2219C129.239 90.2394 120.974 86.4339 114.763 85.0675C107.637 83.4992 107.43 82.9485 103.98 81.273C103.878 81.2245 103.773 81.1731 103.665 81.1224C99.9063 79.3287 96.6838 78.0754 96.6838 78.0754C104.022 76.4615 104.917 62.6536 104.917 62.6536C104.917 62.6536 106.793 63.2424 109.376 64.02C114.057 65.4268 121.049 67.4437 123.355 67.675C126.935 68.0325 129.98 68.3931 135.887 67.675C140.28 67.1397 145.266 66.3115 147.535 65.9216C147.559 65.9165 147.572 65.9135 147.572 65.9135C148.332 65.7843 148.775 65.7036 148.775 65.7036L153.966 69.6457Z" fill="#37B34A"/>
<path d="M120.032 67.0067C120.032 67.0067 124.43 69.3776 127.115 78.1634" stroke="#006837" stroke-width="0.5719" stroke-miterlimit="10" stroke-linecap="round" stroke-linejoin="round"/>
<path d="M128.636 70.8123C128.636 70.8123 132.767 89.4441 138.399 97.6103C138.399 97.6103 130.963 89.1013 129.173 83.2737" stroke="#006837" stroke-width="0.5719" stroke-miterlimit="10" stroke-linecap="round" stroke-linejoin="round"/>
<path opacity="0.5" d="M153.966 69.6456L140.184 99.0531C140.184 99.0531 138.393 97.7968 135.351 94.7497C134.884 94.282 134.247 93.7651 133.476 93.2218C135.78 69.2285 146.816 66.1007 147.536 65.9208C147.56 65.9157 147.573 65.9127 147.573 65.9127C148.333 65.7835 148.776 65.7028 148.776 65.7028L153.966 69.6456Z" fill="#37B34A"/>
<path opacity="0.5" d="M103.98 81.2722C103.878 81.2238 103.773 81.1724 103.665 81.1217C99.9063 79.328 96.6838 78.0746 96.6838 78.0746C104.022 76.4608 104.917 62.6528 104.917 62.6528C104.917 62.6528 106.793 63.2417 109.376 64.0192C109.557 66.9723 109.629 76.3264 103.98 81.2722Z" fill="#37B34A"/>
<path d="M99.1894 58.7988C99.1894 58.7988 101.606 58.8884 103.754 59.964C105.902 61.0397 108.599 62.4979 108.766 63.1917C108.934 63.8856 109.483 74.0393 100.979 80.4051C100.979 80.4051 99.9055 80.6738 98.8316 80.4051C97.7577 80.1363 95.3409 78.5225 94.6247 77.9843C93.9086 77.4461 91.7608 76.2809 91.5812 74.7566C91.5812 74.7566 95.7881 76.0122 98.8309 72.1567C101.874 68.302 103.307 60.4127 99.1894 58.7988Z" fill="#6BDB78"/>
<path d="M82.8983 57.3648C82.8983 59.0066 81.8669 67.6654 81.0247 74.3161C80.5805 77.8308 80.1905 80.7869 80.0358 81.8405C79.5872 84.8846 75.4705 84.7965 70.2513 84.1665C65.0276 83.541 63.1203 81.2105 63.2962 79.325C63.3636 78.6319 63.6356 76.159 63.9838 73.0642C64.5834 67.7395 65.4088 60.5676 65.8076 57.4522C65.9417 56.4067 66.147 55.4155 66.3947 54.4793C67.3088 51.0152 68.8262 48.3279 69.5644 46.4674C70.5034 44.1031 72.7003 38.9172 73.0984 37.3005C73.5008 35.6881 74.398 28.4948 74.398 28.4948C74.398 28.4948 73.9032 27.7767 73.9956 27.0168C74.0836 26.2525 75.0226 25.8956 75.0226 25.8956C75.0226 25.8956 74.6663 24.8626 74.8005 24.552C74.9346 24.237 77.7561 24.4595 79.1393 24.7282C80.527 24.9969 80.9756 25.2238 81.1097 25.5344C81.2439 25.8494 80.4852 26.2987 80.4852 26.2987C80.4852 26.2987 81.7299 27.1512 81.4411 28.0036C81.1559 28.8561 80.3848 29.2467 80.3848 29.2467C80.3848 29.2467 80.3048 30.8715 80.2169 33.517C80.1707 34.7975 79.9442 37.3717 79.9442 38.8959C79.9442 40.4202 82.2291 50.2795 82.2291 50.2795C82.2291 50.2795 82.707 53.5255 82.858 56.0491C82.8822 56.5212 82.8983 56.9706 82.8983 57.3648Z" fill="#009345"/>
<path opacity="0.5" d="M81.4403 28.0036C81.153 28.8561 80.3825 29.2459 80.3825 29.2459C77.026 30.0984 74.3973 28.4956 74.3973 28.4956C74.3973 28.4956 73.9032 27.7804 73.9949 27.0161C74.0836 26.2547 75.0233 25.8971 75.0233 25.8971C75.0233 25.8971 74.6663 24.864 74.8005 24.552C74.9346 24.237 77.7539 24.4602 79.1393 24.7297C80.5277 24.9984 80.9756 25.2245 81.1104 25.5366C81.2446 25.8516 80.4822 26.3002 80.4822 26.3002C80.4822 26.3002 81.7277 27.1512 81.4403 28.0036Z" fill="#37B34A"/>
<path opacity="0.5" d="M80.4823 26.3017C79.0969 26.5249 75.0234 25.8986 75.0234 25.8986C75.0234 25.8986 74.6664 24.8655 74.8005 24.5535C74.9347 24.2385 77.7539 24.4617 79.1394 24.7311C80.5278 24.9999 80.9756 25.226 81.1105 25.5381C81.2447 25.8523 80.4823 26.3017 80.4823 26.3017Z" fill="#37B34A"/>
<path opacity="0.5" d="M79.2794 81.5857C79.1481 82.9344 75.6765 83.7002 71.5253 83.2949C67.3741 82.8904 64.115 81.4682 64.2463 80.1194C64.3775 78.7706 67.8491 78.0048 72.0003 78.4101C76.1515 78.8154 79.4106 80.2369 79.2794 81.5857Z" fill="#37B34A"/>
<path d="M82.8983 57.3648C82.8983 59.0065 81.8669 67.6653 81.0247 74.316C74.7572 75.6347 67.8571 74.1736 63.9838 73.0649C64.5834 67.7402 65.4088 60.5682 65.8076 57.4529C65.9417 56.4073 66.147 55.4161 66.3947 54.48C69.9793 55.5468 76.6323 57.0667 82.8572 56.0505C82.8822 56.5211 82.8983 56.9705 82.8983 57.3648Z" fill="#FFD749"/>
<path opacity="0.5" d="M75.3429 30.5881C75.3429 30.5881 74.7088 40.0282 72.5441 44.8587C70.3795 49.6892 67.9759 54.4176 67.3257 59.5617C66.6754 64.7057 65.1771 79.7171 65.1771 79.7171C65.1771 79.7171 66.1513 80.3875 68.0374 80.5248C68.0374 80.5248 70.1119 58.1652 71.0656 55.5564C72.02 52.9484 73.9567 46.0019 74.7696 43.3865C75.5826 40.7712 76.2269 30.5881 76.2269 30.5881H75.3429Z" fill="#6BDB78"/>
<path d="M72.4276 40.9584C72.4276 40.9584 72.4276 40.9584 73.1438 41.5861C73.86 42.2139 76.0078 44.7242 76.2269 45.7103C76.4461 46.6964 75.3429 47.4137 75.3429 47.4137C76.2893 48.3998 76.5451 49.8345 75.8289 50.8206C75.1127 51.8066 73.3227 51.0893 73.3227 51.0893C73.3227 51.0893 74.3965 52.4344 73.6804 53.6892C72.9642 54.944 69.4735 53.5996 69.4735 53.5996C69.4735 55.2135 68.489 55.8412 67.5045 55.5718C66.5201 55.3031 64.5511 53.9579 64.2821 52.4344C64.0138 50.9101 65.1772 49.6553 65.1772 49.6553C64.461 48.0415 65.8039 45.8902 65.8039 45.8902C65.2666 44.0972 66.7884 41.4973 66.7884 41.4973C66.6989 39.346 68.8467 38.2696 69.7418 37.8217C70.6368 37.3738 71.2636 37.1939 72.6952 37.3738L73.0976 37.3048L72.4261 40.0185C72.4276 40.0171 72.1593 40.3754 72.4276 40.9584Z" fill="#DB9C94"/>
<path d="M82.6308 54.585C85.7638 51.7163 86.2095 50.2009 86.3004 48.9373C86.392 47.6729 86.6544 44.6347 86.3854 43.3791C86.1171 42.1243 83.5251 40.4202 82.1829 40.3306C80.84 40.241 79.4978 40.3306 79.4978 40.3306C79.4978 40.3306 77.6183 40.5993 76.8127 41.2271C76.0071 41.8549 75.785 44.9496 81.109 45.4408C81.109 45.4408 81.5569 48.0855 81.7805 49.3859L82.6308 54.585Z" fill="#DB9C94"/>
<path d="M66.7891 41.4966C66.7891 41.4966 66.7891 42.3483 70.5481 45.0378C73.7456 47.3257 74.2301 47.3242 75.3429 47.4138" stroke="#DB9C94" stroke-width="0.5719" stroke-miterlimit="10" stroke-linecap="round" stroke-linejoin="round"/>
<path d="M65.8038 45.8895C65.8038 45.8895 66.1168 46.9652 68.6231 48.6238C71.1293 50.2824 73.3219 51.0894 73.3219 51.0894" stroke="#DB9C94" stroke-width="0.5719" stroke-miterlimit="10" stroke-linecap="round" stroke-linejoin="round"/>
<path d="M65.1779 49.6547C65.1779 49.6547 64.999 51.2237 69.4742 53.599" stroke="#DB9C94" stroke-width="0.5719" stroke-miterlimit="10" stroke-linecap="round" stroke-linejoin="round"/>
<path d="M83.3468 44.8579C82.586 45.6648 81.1089 45.4409 81.1089 45.4409C81.1089 45.4409 81.6462 46.0687 82.2275 46.203" stroke="#DB9C94" stroke-width="0.5719" stroke-miterlimit="10" stroke-linecap="round" stroke-linejoin="round"/>
<path d="M194.902 137.206V137.204C194.496 130.909 194.136 116.24 194.064 112.858C193.885 104.431 192.632 80.4044 192.811 76.9983C192.99 73.5914 190.842 70.0054 188.515 68.3916C186.187 66.7777 167.574 62.6543 167.574 62.6543C167.574 62.6543 155.399 64.8056 148.775 65.7021C146.059 66.9385 143.874 69.1016 142.6 71.8028C140.203 76.8808 136.787 85.6872 137.139 94.0317C137.598 104.919 136.618 128.398 136.324 135.23C136.324 135.23 135.362 141.697 133.476 146.359C131.589 151.021 134.096 153.71 134.096 153.71C134.096 153.71 145.195 160.538 165.064 161.517C184.934 162.496 196.212 156.041 196.212 156.041C196.212 156.041 197.823 154.966 198.539 152.634C199.255 150.303 195.26 142.975 194.902 137.206Z" fill="#37B34A"/>
<path d="M155.895 138.608C155.895 138.608 176.401 142.308 194.902 137.204C194.902 137.204 181.931 145.117 164.968 145.117" stroke="#006837" stroke-width="0.5719" stroke-miterlimit="10" stroke-linecap="round" stroke-linejoin="round"/>
<path d="M163.371 68.7499V82.378H166.564V68.7829L163.371 68.7499Z" fill="#6BDB78"/>
<path d="M165.192 69.114L173.464 65.1308L173.461 63.4024L173.398 57.4552L160.242 54.1533L160.004 60.5823L159.927 62.5757L159.895 64.8995L165.192 69.114Z" fill="#DB9C94"/>
<path d="M173.464 63.7519C166.566 64.0442 162.384 62.2717 160.003 60.5823L160.242 54.1533L173.398 57.4552L173.46 63.4024L173.464 63.7519Z" fill="#DB9C94"/>
<path d="M159.962 63.7152L165.045 68.0112V73.4599L163.371 68.7498L161.028 74.3542L155.276 64.7248L160.044 61.5925L159.962 63.7152Z" fill="#6BDB78"/>
<path d="M173.42 64.1051L165.045 68.0112V73.46L166.409 68.7829L170.401 74.3542L176.613 64.7791L173.434 62.1763L173.42 64.1051Z" fill="#6BDB78"/>
<path d="M269.695 77.6715C269.334 78.1289 268.928 78.6664 268.387 79.2251C267.247 80.4095 265.516 81.69 262.447 82.513C257.928 83.7223 255.286 80.9425 255.152 80.5225C255.018 80.107 253.316 78.5195 252.423 76.5922C251.526 74.6648 250.855 70.7683 251.346 68.009C251.84 65.2542 253.987 64.0405 255.328 62.8775C255.672 62.5794 255.919 62.1931 256.058 61.7644C256.213 61.2812 256.209 60.3958 256.724 60.1307C256.917 60.0301 257.143 60.0132 257.357 60.0213C257.524 60.0257 257.696 60.0426 257.843 60.1138C258.01 60.1975 258.165 60.3282 258.308 60.4787C258.496 60.6843 258.656 60.9281 258.769 61.1425C259.213 61.9905 259.444 62.9479 259.402 63.9054C259.378 64.4509 259.281 64.9003 259.142 65.2659C258.778 66.2777 258.149 66.6433 258.149 66.6433C258.149 66.6433 259.583 66.1015 261.109 65.5222C262.635 64.9385 265.129 65.4296 266.294 66.1477C267.456 66.8658 268.353 70.1368 268.487 71.0774C268.621 72.0223 270.814 73.1853 270.994 73.5003C271.171 73.8168 270.814 76.2354 269.695 77.6715Z" fill="#DB9C94"/>
<path d="M269.695 77.6715C269.334 78.1289 268.927 78.6664 268.387 79.2251C265.604 78.822 262.854 78.1039 260.464 76.6472C259.408 76.0048 258.347 75.0642 258.293 73.8256C258.259 73.07 258.595 72.2382 258.192 71.6001C258.029 71.3402 257.76 71.1552 257.614 70.882C257.475 70.6258 257.467 70.3196 257.463 70.0252C257.438 68.6103 257.425 66.9098 258.494 65.8386C258.691 65.6411 258.909 65.4524 259.144 65.2674C258.779 66.2791 258.15 66.6448 258.15 66.6448C258.15 66.6448 259.584 66.1029 261.11 65.5236C262.637 64.9399 265.13 65.4311 266.296 66.1492C267.457 66.8672 268.354 70.1383 268.488 71.0788C268.623 72.0238 270.815 73.1868 270.995 73.5018C271.171 73.8168 270.814 76.2353 269.695 77.6715Z" fill="#DB9C94"/>
<path d="M253.63 69.1089C253.63 69.1089 256.996 68.5729 258.15 66.6433" stroke="#DB9C94" stroke-width="0.5719" stroke-miterlimit="10" stroke-linecap="round" stroke-linejoin="round"/>
<path d="M263.587 80.5232C257.277 81.2751 254.821 80.0401 255.6 79.5746C255.739 79.4909 255.94 79.394 256.187 79.289C257.336 78.789 259.432 78.0797 260.388 77.6935C261.553 77.2229 261.842 76.6186 261.842 76.6186L259.825 62.5646C258.752 62.0947 255.457 56.9169 253.629 50.2611C251.873 43.8784 251.181 34.7291 251.181 34.7291L252.845 34.5698L256.471 34.2211L265.22 33.3855C265.643 36.9465 266.624 48.1076 265.727 53.8684C264.918 59.0668 261.996 62.2959 261.996 62.2959L263.518 76.3498C264.255 77.156 265.329 77.4923 266.473 77.8279C267.156 78.0298 268.347 78.1091 269.244 78.2265C269.848 78.3102 270.326 78.4072 270.43 78.5665C270.701 78.9689 269.896 79.775 263.587 80.5232Z" fill="#75C6EF"/>
<path d="M263.587 80.5247C257.277 81.2722 254.819 80.0379 255.599 79.5753C255.738 79.4916 255.939 79.3955 256.189 79.2875C256.729 79.6187 258.238 80.0137 262.446 79.731C267.214 79.4109 268.756 78.6414 269.248 78.2273C269.852 78.3081 270.328 78.405 270.435 78.5665C270.703 78.9703 269.897 79.7773 263.587 80.5247Z" fill="#75C6EF"/>
<path d="M253.137 45.5304C253.137 45.5304 262.781 45.62 265.533 44.8806C265.533 44.8806 266.071 57.2422 262.446 60.2055C258.821 63.1696 256.882 57.0711 256.882 57.0711C256.882 57.0711 254.527 51.8947 253.137 45.5304Z" fill="#FFD749"/>
<path d="M260.388 59.2503C255.844 55.7025 253.438 39.1581 252.847 34.5684L256.473 34.2196C256.171 43.6427 260.388 59.2503 260.388 59.2503Z" fill="#75C6EF"/>
<path d="M271.218 72.4253C271.218 72.4253 271.71 70.274 271.62 69.1529C271.531 68.0324 271.037 67.3599 271.037 67.3599C271.037 67.3599 271.083 64.7152 270.412 63.7291C269.74 62.743 268.219 62.6087 267.727 62.5639C267.727 62.5639 267.95 60.7511 267.28 60.0212C266.608 59.2914 264.908 59.0227 263.789 59.4706C262.67 59.9192 261.11 61.0418 260.388 62.2496C259.941 62.9963 260.388 63.7739 260.388 63.7739C260.388 63.7739 258.687 64.4464 258.15 65.4325C257.612 66.4186 258.016 67.4942 259.402 68.0097C259.402 68.0097 257.557 68.5251 257.92 70.1389C258.284 71.7528 259.85 71.7528 260.835 71.708C261.819 71.6632 262.759 71.5751 263.52 71.4172C264.281 71.2594 265.937 71.1698 266.384 71.1698C266.832 71.1698 267.995 71.7198 267.995 71.7198C267.995 71.7198 266.966 71.6867 266.071 71.7198C265.176 71.7528 263.833 71.5523 262.446 71.7198C261.058 71.8872 260.701 72.4114 260.656 73.023C260.611 73.6346 260.79 74.1728 261.909 74.4416C263.027 74.7103 266.294 75.3381 267.011 75.562C267.727 76.0547 269.973 78.6546 271.065 75.2257C271.363 74.523 271.473 73.418 271.218 72.4253Z" fill="#DB9C94"/>
<path d="M260.387 63.7747C260.387 63.7747 260.521 64.3577 261.685 64.4921C262.849 64.6264 267.727 62.5647 267.727 62.5647" stroke="#DB9C94" stroke-width="0.5719" stroke-miterlimit="10" stroke-linecap="round" stroke-linejoin="round"/>
<path d="M259.402 68.0105C259.402 68.0105 266.697 66.8225 267.906 66.7329C269.114 66.6433 270.499 67.0016 271.037 67.3607" stroke="#DB9C94" stroke-width="0.5719" stroke-miterlimit="10" stroke-linecap="round" stroke-linejoin="round"/>
<path d="M267.727 71.5994C267.727 71.5994 269.517 71.8431 269.965 71.8879C270.412 71.9327 271.218 72.4254 271.218 72.4254" stroke="#DB9C94" stroke-width="0.5719" stroke-miterlimit="10" stroke-linecap="round" stroke-linejoin="round"/>
<path d="M267.011 75.5636C267.011 75.5636 268.488 75.7428 269.024 76.0563" stroke="#DB9C94" stroke-width="0.5719" stroke-miterlimit="10" stroke-linecap="round" stroke-linejoin="round"/>
<path d="M221.387 78.6091C221.387 78.6091 217.738 76.9453 209.549 84.2113" stroke="#006837" stroke-width="0.5719" stroke-miterlimit="10" stroke-linecap="round" stroke-linejoin="round"/>
<path d="M231.134 84.5549C231.134 84.5549 228.881 89.0558 224.988 92.4178C221.095 95.7799 211.692 99.0758 211.692 99.0758C211.692 99.0758 220.736 97.5281 224.764 95.6455" stroke="#006837" stroke-width="0.5719" stroke-miterlimit="10" stroke-linecap="round" stroke-linejoin="round"/>
<path d="M153.274 48.0878C153.274 48.0878 153.868 41.4951 153.556 36.9723C153.243 32.4486 155.404 30.7533 157.065 30.1784C158.012 29.8502 159.081 30.21 159.081 30.21C159.081 30.21 166.451 24.8038 173.727 28.7687C181.002 32.7343 179.449 37.6676 179.49 38.1933C179.615 39.78 179.853 48.5548 179.853 48.5548L153.274 48.0878Z" fill="#660814"/>
<path d="M155.895 46.7831L155.776 51.4844C155.5 51.477 155.236 51.4454 154.986 51.3926H154.981C151.32 50.5901 151.059 45.0048 152.558 44.4174C153.104 44.2044 153.661 44.4115 154.163 44.7771C155.139 45.4827 155.895 46.7831 155.895 46.7831Z" fill="#DB9C94"/>
<path d="M155.895 46.783L155.776 51.4843C155.5 51.477 155.236 51.4454 154.986 51.3925H154.981C154.075 48.6186 154.086 46.0268 154.164 44.7771C155.139 45.4827 155.895 46.783 155.895 46.783Z" fill="#DB9C94"/>
<path d="M177.21 47.9079L176.974 52.6048C177.25 52.6187 177.516 52.607 177.769 52.5732H177.774C181.485 52.0497 182.167 46.5003 180.716 45.8014C180.188 45.5473 179.617 45.7125 179.088 46.0392C178.062 46.6685 177.21 47.9079 177.21 47.9079Z" fill="#DB9C94"/>
<path d="M177.21 47.9078L176.974 52.6047C177.25 52.6186 177.516 52.6069 177.769 52.5731H177.774C178.887 49.8756 179.071 47.2903 179.088 46.0385C178.062 46.6684 177.21 47.9078 177.21 47.9078Z" fill="#DB9C94"/>
<path d="M178.372 48.0305C177.697 55.4206 171.924 60.9339 165.476 60.3422C159.028 59.754 154.35 53.2832 155.025 45.8932C155.206 43.9152 155.75 42.0678 156.581 40.443C158.841 35.9877 163.2 33.1491 167.921 33.5816C172.889 34.0353 176.804 37.9782 178.029 43.1472C178.401 44.6839 178.527 46.3345 178.372 48.0305Z" fill="#DB9C94"/>
<path d="M178.028 43.1472C168.327 43.7727 160.605 37.3401 160.605 37.3401L156.945 41.4004L156.58 40.443C158.84 35.9877 163.2 33.1491 167.92 33.5816C172.889 34.0353 176.804 37.9782 178.028 43.1472Z" fill="#DB9C94"/>
<path d="M158.909 35.2527C158.909 35.2527 159.074 42.5377 157.781 43.9049C156.488 45.272 156.36 44.833 156.36 44.833C156.36 44.833 157.31 48.7229 156.598 49.195C155.887 49.6671 153.665 48.5606 154.185 43.4629C154.706 38.3666 158.909 35.2527 158.909 35.2527Z" fill="#660814"/>
<path d="M174.792 35.6565C174.792 35.6565 174.258 42.9239 175.48 44.3549C176.702 45.786 176.852 45.3542 176.852 45.3542C176.852 45.3542 175.706 49.1913 176.393 49.6987C177.079 50.206 179.355 49.2141 179.093 44.0965C178.831 38.9796 174.792 35.6565 174.792 35.6565Z" fill="#660814"/>
<path d="M158.314 33.9075C158.314 33.9075 165.668 41.5854 176.757 39.7667L176.883 34.7996C176.883 34.7996 174.853 32.1578 170.11 31.757C165.368 31.3568 158.314 33.9075 158.314 33.9075Z" fill="#660814"/>
<path d="M166.672 21.093C167.297 22.919 166.327 24.9073 164.504 25.5336C162.68 26.1599 160.695 25.1871 160.07 23.3611C159.445 21.535 160.415 19.5467 162.238 18.9204C164.062 18.2949 166.047 19.267 166.672 21.093Z" fill="white"/>
<path d="M167.598 30.0631C173.207 30.8517 176.536 32.1241 178.452 33.1741C176.574 28.7951 171.242 18.5797 163.372 21.6334C154.715 24.9918 153.479 33.2233 153.304 35.2887C155.174 32.9927 159.676 28.9486 167.598 30.0631Z" fill="#ED3A5B"/>
<path d="M179.521 40.8982C182.113 32.0522 176.739 27.2261 166.22 27.6725C155.885 28.1108 152.331 33.2952 152.266 36.7704C152.216 39.36 153.646 42.2734 153.646 42.2734L153.529 38.1081C153.529 38.1081 156.195 32.4487 166.698 32.4487C176.974 32.4487 178.562 35.2784 178.562 35.2784C178.562 35.2784 179.215 36.3144 179.199 38.1081C179.183 39.9019 179.521 40.8982 179.521 40.8982Z" fill="white"/>
<path d="M314.186 127.265V290.795C314.186 293.852 311.704 296.333 308.652 296.333H225.969C222.916 296.333 220.439 293.852 220.439 290.795V127.265C220.439 124.202 222.916 121.721 225.969 121.721H308.652C311.704 121.721 314.186 124.202 314.186 127.265Z" fill="#F8A5C9"/>
<path d="M314.186 127.265V135.694H220.439V127.265C220.439 124.202 222.916 121.721 225.969 121.721H308.652C311.704 121.721 314.186 124.202 314.186 127.265Z" fill="#E94A29"/>
<path d="M233.613 128.707C233.613 129.721 232.793 130.543 231.78 130.543C230.769 130.543 229.948 129.721 229.948 128.707C229.948 127.693 230.768 126.872 231.78 126.872C232.793 126.872 233.613 127.693 233.613 128.707Z" fill="white"/>
<path d="M239.674 128.707C239.674 129.721 238.854 130.543 237.842 130.543C236.83 130.543 236.01 129.721 236.01 128.707C236.01 127.693 236.83 126.872 237.842 126.872C238.854 126.872 239.674 127.693 239.674 128.707Z" fill="white"/>
<path d="M245.736 128.707C245.736 129.721 244.916 130.543 243.904 130.543C242.892 130.543 242.071 129.721 242.071 128.707C242.071 127.693 242.892 126.872 243.904 126.872C244.916 126.872 245.736 127.693 245.736 128.707Z" fill="white"/>
<path d="M234.718 296.334H304.155C304 291.723 303.687 287.547 303.68 284.299C303.68 283.606 303.672 282.951 303.665 282.348C303.619 279.305 303.498 277.47 303.498 277.47C282.746 266.532 245.423 267.786 245.423 267.786C243.981 270.081 242.606 272.907 241.311 276.046C241.137 276.468 240.963 276.894 240.794 277.323C238.471 283.169 236.418 289.951 234.718 296.334Z" fill="#002395"/>
<path d="M241.31 276.047C261.97 285.151 293.706 283.238 303.664 282.349C303.618 279.306 303.498 277.471 303.498 277.471C282.745 266.532 245.422 267.787 245.422 267.787C243.981 270.082 242.605 272.907 241.31 276.047Z" fill="#002395"/>
<path d="M223.757 179.261L250.296 176.026L257.215 175.18L268.084 173.857V172.019L256.981 169.069L254.509 168.412L224.87 160.531C224.87 160.531 220.865 171.504 223.757 179.261Z" fill="#ED3A5B"/>
<path opacity="0.5" d="M250.296 176.026L257.215 175.18L256.981 169.068L254.509 168.411C254.202 169.418 252.903 173.259 250.296 176.026Z" fill="#890E17"/>
<path d="M268.084 172.019L272.176 172.536V174.202L268.084 173.857V172.019Z" fill="#F47A97"/>
<path d="M188.714 228.048L186.042 222.645C186.042 222.645 183.625 224.892 182.778 232.231C181.93 239.57 183.99 243.223 183.99 243.223C183.99 243.223 187.559 240.825 188.714 234.607C189.869 228.388 188.714 228.048 188.714 228.048Z" fill="#073660"/>
<path d="M158.828 226.193C158.828 226.193 158.217 227.213 158.451 228.325C158.68 229.432 160.612 230.338 160.612 230.338C159.452 233.532 162.92 234.363 162.92 234.363C162.59 235.416 163.301 237.484 164.713 238.118C166.133 238.756 172.667 239.349 174.425 239.427C176.178 239.496 179.543 238.508 182.483 238.109C182.578 238.095 182.678 238.086 182.777 238.076C183.722 237.971 184.782 237.961 185.869 238.012C188.147 238.122 190.533 238.49 192.144 238.747C194.603 239.133 209.455 240.493 214.361 240.309C219.267 240.121 221.986 239.091 222.19 233.504C222.394 227.911 219.747 224.842 219.747 224.842C216.669 223.399 205.969 225.177 198.149 226.303C193.239 227.011 188.082 226.712 184.921 226.39C184.419 226.34 183.969 226.289 183.574 226.244C182.496 226.106 181.869 226.004 181.869 226.004C181.869 226.004 180.942 225.058 178.175 223.67C175.413 222.278 171.086 220.872 168.225 219.888C165.362 218.914 164.085 219.796 163.812 220.251C163.544 220.701 162.405 221.846 162.405 221.846C162.405 221.846 159.387 221.005 158.218 222.838C157.04 224.667 158.828 226.193 158.828 226.193Z" fill="#DB9C94"/>
<path d="M182.777 238.076C183.722 237.97 184.782 237.961 185.869 238.011C188.147 238.121 190.533 238.489 192.143 238.746C194.603 239.132 209.455 240.492 214.361 240.309C219.267 240.12 221.986 239.091 222.19 233.503C222.394 227.91 219.747 224.841 219.747 224.841C216.669 223.399 205.969 225.177 198.149 226.302C193.239 227.01 188.082 226.711 184.921 226.39C184.812 229.056 184.389 234.17 182.777 238.076Z" fill="#DB9C94"/>
<path d="M162.406 221.847C162.406 221.847 160.864 223.086 160.651 223.525C160.438 223.964 160.948 225.528 163.412 225.336C165.875 225.144 166.897 224.19 166.897 224.19C166.897 224.19 168.928 228.053 171.417 229.15" stroke="#DB9C94" stroke-width="0.6272" stroke-miterlimit="10" stroke-linecap="round" stroke-linejoin="round"/>
<path d="M166.896 224.19C166.896 224.19 168.442 226.028 171.674 225.136" stroke="#DB9C94" stroke-width="0.6272" stroke-miterlimit="10" stroke-linecap="round" stroke-linejoin="round"/>
<path d="M158.828 226.191L163.869 225.29C163.869 225.29 167.088 224.575 167.433 225.103" stroke="#DB9C94" stroke-width="0.6272" stroke-miterlimit="10" stroke-linecap="round" stroke-linejoin="round"/>
<path d="M160.613 230.338C160.613 230.338 164.336 228.877 165.641 228.763C166.946 228.65 168.387 228.609 168.413 226.509" stroke="#DB9C94" stroke-width="0.6272" stroke-miterlimit="10" stroke-linecap="round" stroke-linejoin="round"/>
<path d="M162.921 234.362C162.921 234.362 165.191 232.514 166.141 232.242C167.091 231.968 169.614 231.799 170.155 231.294C171.344 230.188 170.512 228.7 170.002 228.223C169.493 227.747 167.488 228.389 167.488 228.389" stroke="#DB9C94" stroke-width="0.6272" stroke-miterlimit="10" stroke-linecap="round" stroke-linejoin="round"/>
<path d="M165.084 237.254C165.084 237.254 166.808 235.865 167.135 235.453C167.46 235.041 170.894 234.231 171.01 232.891C171.127 231.551 170.157 231.294 170.157 231.294" stroke="#DB9C94" stroke-width="0.6272" stroke-miterlimit="10" stroke-linecap="round" stroke-linejoin="round"/>
<path d="M167.134 235.453C167.134 235.453 167.198 236.643 166.758 237.588" stroke="#DB9C94" stroke-width="0.6272" stroke-miterlimit="10" stroke-linecap="round" stroke-linejoin="round"/>
<path d="M169.068 234.557C169.068 234.557 170.126 236.016 169.981 237.265" stroke="#DB9C94" stroke-width="0.6272" stroke-miterlimit="10" stroke-linecap="round" stroke-linejoin="round"/>
<path d="M183.99 243.223C183.99 243.223 185.674 243.324 188.415 243.425C196.742 243.732 214.824 244.059 225.086 241.637C233.426 239.67 240.146 235.64 244.806 232.231C247.763 230.062 249.889 228.145 251.067 227.162C254.098 224.635 254.964 203.496 254.964 203.496L269.253 188.561L259.74 187.008C259.74 187.008 258.324 187.036 256.085 187.67C256.085 187.67 256.085 187.67 256.08 187.674C252.43 188.708 246.598 191.373 241.185 198.211C232.447 209.24 221.189 221.188 218.808 222.567C216.963 223.633 198.344 223.095 190.021 222.796C187.592 222.709 186.042 222.644 186.042 222.644C186.042 222.644 188.536 236.33 183.99 243.223Z" fill="#006AEE"/>
<path d="M243.128 204.645C243.128 204.645 242.984 218.125 248.757 225.018C248.757 225.018 242.559 220.116 241.184 215.98" stroke="#073660" stroke-width="0.6272" stroke-miterlimit="10" stroke-linecap="round" stroke-linejoin="round"/>
<path opacity="0.5" d="M244.806 232.231C247.763 230.062 249.889 228.145 251.067 227.162C254.098 224.635 254.964 203.496 254.964 203.496L269.253 188.561L259.74 187.008C259.74 187.008 258.323 187.036 256.085 187.67C256.085 187.67 256.085 187.67 256.08 187.674C255.894 187.784 251.131 190.753 247.312 200.968C243.827 210.288 243.576 222.792 244.806 232.231Z" fill="#006AEE"/>
<path d="M183.99 243.223C183.99 243.223 185.674 243.324 188.415 243.425C191.975 235.543 190.87 226.877 190.021 222.796C187.592 222.709 186.042 222.644 186.042 222.644C186.042 222.644 188.536 236.33 183.99 243.223Z" fill="#65D2EF"/>
<path d="M242.628 268.642C256.274 277.111 286.707 280.057 287.036 280.088C297.335 280.893 305.505 280.87 306.587 280.127C309.419 278.172 306.973 274.835 308.133 264.771C308.314 263.184 308.639 260.501 308.963 257.854C310.834 251.478 312.897 244.558 314.068 239.146C314.517 237.087 315.085 234.803 315.665 232.396C317.57 224.546 319.649 215.43 318.25 208.846C317.79 206.659 316.944 204.755 315.588 203.268C311.538 198.832 304.264 194.567 299.125 191.88C295.74 190.108 293.286 189.023 293.286 189.023C289.236 187.157 283.107 186.085 277.009 185.718C268.696 185.218 260.434 186.019 257.563 187.873C255.348 189.306 253.087 193.567 251.264 198.495C250.263 201.193 249.394 204.088 248.736 206.836C247.889 210.347 247.387 213.614 247.387 215.902C247.387 223.257 249.119 238.651 248.469 243.017C247.82 247.384 245.44 254.506 245.44 257.172C245.44 259.844 244.79 261.628 243.059 263.006C240.769 267.241 242.628 268.642 242.628 268.642Z" fill="#006AEE"/>
<path d="M279.14 201.87C289.385 200.225 296.708 194.132 299.124 191.879C295.738 190.107 293.284 189.022 293.284 189.022C289.234 187.157 283.924 186.138 277.825 185.771C276.875 191.589 279.14 201.87 279.14 201.87Z" fill="#65D2EF"/>
<path opacity="0.5" d="M248.733 206.837C250.924 216.621 258.991 242 265.356 247.229C273.008 253.506 278.923 252.744 284.625 251.669C289.765 250.704 307.726 245.139 315.662 232.396C317.567 224.547 319.646 215.43 318.247 208.844C316.221 204.3 312.825 201.547 310.245 200.849C305.049 199.438 298.987 201.777 294.367 206.198C289.747 210.618 284.624 215.981 284.624 215.981C284.624 215.981 279.502 210.816 276.613 206.198C273.725 201.579 268.676 193.004 268.676 193.004C268.676 193.004 259.492 191.956 253.521 196.156C253.521 196.156 252.452 197.167 251.261 198.495C250.262 201.195 249.391 204.09 248.733 206.837Z" fill="#006AEE"/>
<path d="M229.273 234.606C229.273 234.606 220.901 229.46 218.808 222.567C218.808 222.567 218.592 227.316 220.612 231.452" stroke="#073660" stroke-width="0.6272" stroke-miterlimit="10" stroke-linecap="round" stroke-linejoin="round"/>
<path d="M253.01 189.983L253.139 191.13L254.207 200.624L265.681 196.159L264.587 189.504L264.488 188.907C264.488 188.907 269.361 180.982 270.013 177.991C270.661 175.005 268.972 169.72 268.084 169.261C267.195 168.801 265.9 168.573 265.9 168.573C265.9 168.573 265.789 166.274 264.488 165.587C263.193 164.895 261.568 165.587 261.568 165.587C261.568 165.587 259.835 164.63 258.647 165.279C258.647 165.279 256.154 164.895 254.422 165.815C252.693 166.734 252.907 168 253.233 168.801C253.559 169.606 255.18 169.953 255.18 169.953C255.18 169.953 254.854 171.56 253.992 173.745C253.125 175.925 249.754 186.352 253.01 189.983Z" fill="#DB9C94"/>
<path d="M253.139 191.13L254.206 200.625L265.68 196.16L264.586 189.505C262.277 188.793 257.324 187.869 253.139 191.13Z" fill="#DB9C94"/>
<path d="M265.897 168.573C265.897 168.573 266.33 171.559 266.438 172.536" stroke="#DB9C94" stroke-width="0.6272" stroke-miterlimit="10" stroke-linecap="round" stroke-linejoin="round"/>
<path d="M263.137 171.502C263.137 171.502 262.812 166.619 261.567 165.586" stroke="#DB9C94" stroke-width="0.6272" stroke-miterlimit="10" stroke-linecap="round" stroke-linejoin="round"/>
<path d="M259.673 171.043C259.673 171.043 259.943 166.007 258.645 165.28" stroke="#DB9C94" stroke-width="0.6272" stroke-miterlimit="10" stroke-linecap="round" stroke-linejoin="round"/>
<path d="M255.18 169.951C255.18 169.951 255.396 168.343 254.585 167.538" stroke="#DB9C94" stroke-width="0.6272" stroke-miterlimit="10" stroke-linecap="round" stroke-linejoin="round"/>
<path d="M249.984 198.672C249.984 198.672 250.339 200.046 250.998 202.334C254.24 213.62 264.767 247.194 275.748 248.531C288.954 250.139 308.223 240.061 314.069 231.886C319.914 223.716 323.131 209.433 315.584 203.267C315.584 203.267 308.656 196.144 298.697 206.024C288.738 215.903 284.624 219.58 284.624 219.58C284.624 219.58 271.773 204.595 268.083 194.126C267.736 193.143 267.473 192.205 267.304 191.318C267.304 191.318 258.645 185.345 249.984 198.672Z" fill="#006AEE"/>
<path d="M249.984 198.672C249.984 198.672 250.339 200.046 250.998 202.334C255.795 195.216 263.996 194.169 268.084 194.127C267.737 193.144 267.473 192.206 267.305 191.319C267.305 191.319 258.645 185.345 249.984 198.672Z" fill="#65D2EF"/>
<path d="M288.305 229.613C287.728 224.099 284.625 219.58 284.625 219.58C284.625 219.58 288.45 221.188 289.46 223.639" stroke="#073660" stroke-width="0.6272" stroke-miterlimit="10" stroke-linecap="round" stroke-linejoin="round"/>
<path d="M310.244 207.096C310.244 207.096 300.931 202.844 291.732 212.859" stroke="#073660" stroke-width="0.6272" stroke-miterlimit="10" stroke-linecap="round" stroke-linejoin="round"/>
<path d="M279.569 161.991C279.356 162.633 279.312 163.319 279.156 163.979C278.999 164.637 278.697 165.307 278.126 165.669C277.742 165.912 277.255 166.004 276.951 166.341C276.355 166.998 276.82 168.101 276.445 168.904C276.204 169.418 275.668 169.716 275.158 169.965C274.649 170.214 274.104 170.476 273.813 170.964C273.522 171.452 273.656 172.23 274.201 172.385C274.721 172.532 275.192 172.064 275.541 171.651C275.89 171.238 276.404 170.794 276.904 170.999C277.069 171.067 277.201 171.2 277.296 171.353C277.582 171.814 277.51 172.466 277.132 172.854C276.848 173.145 276.433 173.281 276.16 173.582C275.439 174.378 276.11 175.676 275.819 176.71C275.709 177.102 275.462 177.44 275.305 177.816C275.148 178.192 275.097 178.661 275.353 178.977C275.666 179.36 276.314 179.309 276.671 178.967C277.028 178.626 277.138 178.093 277.113 177.599C277.094 177.228 277.01 176.857 277.049 176.487C277.088 176.117 277.29 175.729 277.645 175.62C278.074 175.488 278.535 175.839 278.671 176.268C278.807 176.697 278.697 177.163 278.548 177.588C278.365 178.109 278.121 178.613 278.006 179.154C277.892 179.695 277.924 180.3 278.253 180.744C278.334 180.853 278.431 180.951 278.493 181.072C278.741 181.561 278.316 182.1 278.004 182.55C277.709 182.975 277.496 183.455 277.379 183.958C277.263 184.456 277.248 185.008 277.513 185.445C277.778 185.881 278.39 186.128 278.824 185.859C279.165 185.646 279.288 185.212 279.554 184.909C280.125 184.254 281.25 184.398 281.886 184.989C282.06 185.151 282.212 185.341 282.421 185.453C283.33 185.945 284.428 184.672 285.392 185.046C285.676 185.156 285.905 185.401 286.206 185.446C286.452 185.483 286.696 185.377 286.906 185.244C288.153 184.456 288.506 182.547 287.624 181.364C287.176 180.762 286.504 180.378 285.879 179.962C285.167 179.488 284.488 178.94 283.998 178.239C283.508 177.537 283.223 176.662 283.36 175.817C283.459 175.212 283.763 174.656 283.859 174.051C284.045 172.875 283.432 171.743 283.029 170.623C282.674 169.639 282.475 168.554 282.753 167.545C283.057 166.443 283.879 165.576 284.472 164.6C284.771 164.108 285.015 163.584 285.197 163.037C285.323 162.658 285.419 162.252 285.329 161.862C284.99 160.418 284.911 158.727 283.023 159.169C281.523 159.519 280.071 160.479 279.569 161.991Z" fill="#EFD378"/>
<path d="M279.925 185.969L282.017 186.153L284.442 178.011L297.288 177.869L295.76 183.912L294.351 189.464L296.803 190.693C296.803 190.693 289.148 197.177 280.887 198.483C279.727 194.564 279.925 185.969 279.925 185.969Z" fill="#DB9C94"/>
<path d="M282.366 184.982L284.442 178.011L297.288 177.869L295.917 183.29C292.899 184.518 287.97 185.89 282.366 184.982Z" fill="#DB9C94"/>
<path d="M301.74 172.534C301.74 172.534 305.672 161.229 295.74 156.746L293.821 170.084L301.74 172.534Z" fill="#EFD378"/>
<path d="M297.984 176.389C298.37 176.548 298.78 176.593 299.184 176.546C301.544 176.301 303.932 173.085 302.873 171.631C302.628 171.292 302.352 171.093 302.07 171.003C300.936 170.595 299.689 171.801 299.689 171.801L297.984 176.389Z" fill="#DB9C94"/>
<path d="M297.984 176.389C298.37 176.548 298.78 176.593 299.184 176.546C300.615 174.839 301.649 172.201 302.07 171.003C300.936 170.595 299.689 171.801 299.689 171.801L297.984 176.389Z" fill="#DB9C94"/>
<path d="M279.538 168.167C277.968 175.239 281.186 181.967 286.721 183.2C292.256 184.433 298.017 179.704 299.587 172.632C300.441 168.782 299.88 165.047 298.3 162.23C298.275 162.178 298.241 162.125 298.216 162.073C296.884 159.788 294.872 158.14 292.405 157.591C289.79 157.008 287.116 157.76 284.873 159.459C283.182 160.732 281.728 162.543 280.715 164.718C280.203 165.786 279.81 166.936 279.538 168.167Z" fill="#DB9C94"/>
<path d="M280.714 164.718C288.67 167.983 297.277 165.355 297.277 165.355L298.3 162.229L298.338 162.1L298.216 162.072L284.873 159.459C283.181 160.732 281.728 162.543 280.714 164.718Z" fill="#DB9C94"/>
<path d="M281.57 158.995C281.57 158.995 281.204 158.058 282.699 156.555C284.47 154.773 288.544 154.707 292.495 155.664C292.513 155.668 292.528 155.673 292.545 155.677C299.173 156.713 303.769 164.268 300.551 172.842C300.551 172.842 298.61 176.963 297.419 178.215L295.254 175.998C295.254 175.998 297.457 173.628 298.063 171.93C298.668 170.232 298.857 168.352 298.857 168.352C298.857 168.352 296.292 167.197 295.881 164.93C295.881 164.93 293.308 165.482 290.123 164.859L290.12 164.863C274.364 163.199 281.57 158.995 281.57 158.995Z" fill="#EFD378"/>
<path d="M306.607 175.285C306.408 174.63 306.21 173.974 306.012 173.319C305.919 173.014 305.819 172.695 305.593 172.469C305.338 172.216 304.97 172.126 304.64 171.985C303.91 171.676 303.346 171.046 303.044 170.319C303.042 170.311 303.041 170.303 303.039 170.296C303.032 170.01 303.037 169.722 303.006 169.438C302.937 168.813 302.688 168.225 302.432 167.651C301.57 165.717 300.472 163.702 298.563 162.789C297.139 162.107 294.848 162.289 294.456 164.107C294.313 164.774 294.439 165.506 294.381 166.183C294.274 167.473 293.574 167.931 292.912 168.932C292.316 169.831 292.355 170.994 292.403 172.073C292.409 172.206 292.413 172.347 292.348 172.464C292.264 172.613 292.091 172.684 291.927 172.734C291.24 172.948 290.412 173.078 290.069 173.713C289.686 174.421 290.162 175.301 290.021 176.093C289.926 176.621 289.565 177.179 289.891 177.637C290.12 177.959 290.575 178.017 290.924 177.833C291.513 177.521 291.689 176.875 291.847 176.275C291.979 175.777 292.137 175.247 292.536 174.921C293.076 174.48 294.002 174.449 294.227 173.789C294.273 173.654 294.28 173.504 294.351 173.381C294.486 173.14 294.836 173.079 295.078 173.212C295.32 173.344 295.454 173.626 295.471 173.902C295.552 175.234 293.53 175.697 293.103 176.961C292.872 177.643 293.164 178.425 292.909 179.099C292.788 179.417 292.554 179.684 292.437 180.004C292.012 181.167 292.975 182.392 292.692 183.605C292.517 184.352 292.366 185.143 292.485 185.91C292.597 186.63 293.041 187.161 293.509 187.694C293.725 187.939 293.95 188.186 294.229 188.358C294.508 188.53 294.854 188.619 295.168 188.526C295.56 188.41 295.828 188.03 295.928 187.633C296.027 187.235 295.988 186.818 295.947 186.411C295.912 186.072 295.878 185.732 295.844 185.392C295.815 185.097 295.791 184.773 295.96 184.528C296.134 184.274 296.542 184.25 296.742 184.485C296.952 184.731 296.951 185.255 297.072 185.556C297.47 186.536 297.898 187.56 298.876 188.097C299.351 188.357 299.925 188.426 300.419 188.204C301.485 187.726 301.49 186.42 301.23 185.389C301.191 185.232 301.147 185.073 301.103 184.914C300.965 184.409 301.154 183.864 301.584 183.566C301.592 183.561 301.601 183.555 301.609 183.55C302.076 183.235 302.759 183.158 303.174 183.538C303.808 184.119 303.396 185.159 303.476 186.017C303.568 187.006 304.49 187.846 305.482 187.845C305.611 187.845 305.744 187.831 305.859 187.774C306.1 187.658 306.223 187.379 306.244 187.112C306.336 185.959 304.939 185.098 305.002 183.943C305.02 183.618 305.156 183.313 305.237 182.997C305.375 182.464 305.357 181.9 305.406 181.359C305.428 180.901 305.45 180.444 305.473 179.987C305.491 179.48 305.553 178.955 305.442 178.453C305.296 177.795 304.872 177.252 304.487 176.691C304.578 175.905 304.618 175.112 304.478 174.351C304.589 174.321 304.705 174.317 304.818 174.355C305.277 174.51 305.363 175.101 305.486 175.569C305.609 176.037 306.103 176.551 306.496 176.268C306.782 176.062 306.71 175.623 306.607 175.285Z" fill="#EFD378"/>
<path d="M283.407 156.271C283.407 156.271 294.15 144.184 304.291 147.78C314.433 151.375 310.381 161.118 308.727 161.182C307.073 161.245 305.914 157.711 305.914 157.711L303.842 166.896C303.842 166.896 296.846 158.371 284.983 157.644L283.407 156.271Z" fill="#ED3A5B"/>
<path d="M282.017 159.396C286.442 159.445 296.932 160.411 301.776 168.094C302.426 169.124 303.912 169.163 304.621 168.172C305.031 167.597 305.054 166.827 304.667 166.237C302.879 163.511 296.794 156.257 282.363 155.571C281.808 155.545 281.275 155.795 280.932 156.234C280.8 156.403 280.662 156.605 280.534 156.838C279.905 157.98 280.714 159.381 282.017 159.396Z" fill="white"/>
<path d="M305.131 152.834C305.131 152.834 304.957 155.667 305.914 157.71C305.914 157.71 305.715 155.909 306.702 154.793" stroke="#9E1B38" stroke-width="0.5272" stroke-miterlimit="10" stroke-linecap="round" stroke-linejoin="round"/>
<path d="M312.447 161.361C312.268 163.131 310.69 164.421 308.922 164.241C307.155 164.062 305.867 162.481 306.046 160.71C306.225 158.94 307.803 157.65 309.571 157.83C311.339 158.009 312.626 159.59 312.447 161.361Z" fill="white"/>
<path d="M280.311 268.755C280.311 268.755 260.166 268.686 245.457 260.364C245.457 260.364 256.951 263.311 266.167 262.709" stroke="#073660" stroke-width="0.6272" stroke-miterlimit="10" stroke-linecap="round" stroke-linejoin="round"/>
</svg>
