<svg width="331" height="244" viewBox="0 0 331 244" fill="none" xmlns="http://www.w3.org/2000/svg">
<g clip-path="url(#clip0_309_269)">
<path d="M319.449 120.387C330.875 138.62 300.786 173.295 297.219 209.041C296.839 212.878 295.861 225.677 291.419 227.32C291.164 227.424 289.913 227.843 289.244 227.143C287.11 224.796 293.538 211.786 293.116 210.817C292.694 209.847 292.052 210.625 290.746 210.486C288.002 210.178 288.373 224.925 285.062 226.666C283.963 227.229 282.282 226.513 281.602 225.265C279.56 221.523 286.562 213.605 284.871 211.143C284.003 209.906 266.83 198.955 266.459 198.76C249.695 191.227 199.084 170.791 189.503 183.071C187.271 185.934 188.076 192.225 183.072 196.298C182.849 196.465 180.011 198.751 179.072 197.825C177.149 195.963 185.663 183.709 182.829 180C182.291 179.331 181.3 178.829 180.579 179.152C177.826 180.477 180.995 192.111 176.675 195.417C175.95 195.958 174.707 196.542 173.959 195.988C172.047 194.673 174.516 187.996 175.867 178.171C176.767 171.893 176.321 170.427 176.795 163.997C177.633 152.8 179.871 144.325 182.238 135.498C186.252 120.349 187.079 123.756 193.638 102.601C195.864 95.3767 199.563 88.7661 202.247 81.757C203.452 78.5476 206.878 77.1061 206.353 75.186C202.306 60.5688 210.62 81.079 213.163 85.0469C218.835 94.0447 231.342 92.2527 244.092 92.2064C255.181 92.1571 293.135 92.4949 316.511 116.928C318.076 118.543 318.852 119.377 319.493 120.398L319.449 120.387Z" fill="#E94A29"/>
<path d="M311.557 166.739C312.04 165.055 312.886 163.007 314.525 161.759C317.113 159.834 319.123 161.814 321.253 160.455C324.848 158.202 325.999 148.201 323.702 140.824C322.265 136.171 320.453 135.751 319.105 130.109C318.072 125.718 317.802 120.045 318.79 119.6C320.193 118.971 324.588 128.349 326.357 138.409C327.378 144.256 328.835 152.448 325.028 160.039C324.155 161.8 321.328 167.374 316.747 168.053C314.429 168.414 312.575 167.367 311.569 166.686L311.557 166.739Z" fill="#E94A29"/>
<path d="M262.537 91.5301C260.316 92.2149 260.518 63.8087 244.896 53.052C231.559 43.9143 210.726 50.3205 207.712 59.3797C205.558 65.9125 212.83 73.3193 209.191 82.5061C208.984 83.0034 206.888 88.2959 205.012 88.0797C204.204 88.0019 204.115 87.0001 203.423 86.6219C201.016 85.1379 193.183 93.0271 186.386 105.353C181.258 114.632 178.574 123.059 177.64 122.733C176.707 122.408 179.956 114.712 177.026 108.746C175.032 104.687 172.152 105.438 171.552 102.683C170.434 97.4091 180.542 92.1723 189.11 78.73C195.59 68.5653 193.096 66.4619 198.4 58.8047C204.929 49.4147 216.717 41.0783 229.937 41.4131C243.845 41.7438 254.668 51.444 259.83 63.2135C265.493 76.1889 264.122 91.0247 262.537 91.5301Z" fill="#E94A29"/>
<path d="M104.767 31.1411C103.021 31.5434 102.06 32.3928 102.193 33.3763C102.296 34.1363 103.716 49.1572 103.879 51.2136C103.953 52.2418 104.101 53.3296 104.19 53.6426C104.278 53.9704 104.308 54.2535 104.264 54.2983C104.234 54.343 102.917 54.2386 101.335 54.0747C99.7668 53.8959 97.7846 53.7171 96.9267 53.6724C96.0687 53.6128 93.5393 53.4489 91.3057 53.2849C76.1438 52.1971 55.7306 52.674 42.8615 54.4175C37.418 55.1625 32.5514 56.2355 29.9184 57.2786C28.7942 57.7256 25.7174 59.3052 25.2145 59.6777C24.9335 59.9013 24.5045 61.1232 23.0401 65.9066C22.0342 69.1701 21.0431 72.3143 20.8212 72.8955C20.5254 73.7002 20.4514 74.0876 20.5106 74.6092C20.5846 75.1904 20.3627 76.0696 18.987 80.5848C18.0995 83.5055 17.0788 86.9329 16.7386 88.1846C16.2061 90.1218 16.0286 90.554 15.644 90.9265C15.1854 91.3586 15.1559 91.5226 14.0465 97.1256C13.1146 101.82 12.9223 102.967 13.0554 103.295C13.1737 103.608 13.1146 104.278 12.7743 106.26C11.3839 114.337 10.8661 121.341 11.0289 129.82C11.1472 135.587 11.5022 140.027 12.2418 145.317C12.7891 149.237 12.8187 149.728 12.5968 149.877C12.4341 149.967 12.5229 150.682 13.0258 153.543C14.3719 161.188 14.4754 161.665 14.8304 161.963C15.1115 162.186 15.2742 162.723 15.7328 164.809C16.0434 166.224 16.9013 169.577 17.6261 172.289C19.9189 180.783 19.771 180.143 19.5195 180.292C19.3272 180.396 19.342 180.619 19.7266 182.02C19.9633 182.899 20.7621 185.954 21.5017 188.83C22.2265 191.691 22.8626 194.15 22.9069 194.299C23.0105 194.627 24.4749 194.88 30.658 195.596C36.7819 196.311 41.9444 196.564 54.281 196.818C77.7117 197.28 108.183 196.832 120.52 195.834C123.804 195.566 124.1 195.521 124.277 195.193C124.351 195.059 125.254 191.632 126.289 187.579C127.887 181.335 128.138 180.187 127.961 180.053C127.783 179.919 127.857 179.487 128.463 177.207C129.395 173.675 130.963 166.642 131.481 163.647C131.806 161.784 131.969 161.203 132.206 160.964C132.472 160.711 132.635 159.876 133.36 155.093C134.129 150.026 134.188 149.505 133.966 149.356C133.744 149.192 133.759 148.983 134.04 146.793C134.41 143.947 134.854 139.402 135.12 135.929C135.386 132.308 135.342 122.28 135.046 118.42C134.78 115.022 134.07 109.062 133.596 106.305C133.434 105.307 133.345 104.263 133.389 103.98C133.434 103.682 133.374 103.012 133.256 102.475C133.138 101.939 132.694 99.5247 132.28 97.1107C131.363 91.7014 131.466 92.1633 131.008 91.612C130.594 91.1202 129.987 88.8254 130.239 88.6763C130.298 88.6316 130.327 88.5273 130.283 88.4528C130.12 88.1995 130.372 87.7226 130.815 87.4991C131.126 87.3203 131.244 87.1564 131.244 86.8583V86.4411L135.283 85.3682C137.487 84.7721 139.38 84.2953 139.484 84.2953C139.572 84.2953 139.735 84.5337 139.824 84.8317C140.06 85.5321 140.667 85.8152 141.599 85.6364C141.969 85.5619 142.368 85.4725 142.486 85.4278C142.753 85.3235 143.492 83.9227 143.551 83.4161C143.611 82.9541 143.699 82.9243 145.755 82.3729C147.56 81.8812 148.507 81.8067 149.039 82.0749C149.217 82.1643 150.208 83.0882 151.243 84.1164C152.279 85.1596 153.255 86.0089 153.403 86.0089C153.566 86.0089 154.276 86.7093 155.148 87.7226C157.737 90.7626 157.989 91.1351 160.326 95.7099C161.716 98.422 161.923 98.7499 162.249 98.7499C162.678 98.7499 163.994 98.1389 164.586 97.6471L165 97.3342L163.432 94.2943C161.391 90.3304 160.074 88.3634 157.071 84.7423C156.554 84.1313 156.317 83.7141 156.406 83.6247C156.657 83.3714 156.539 83.0584 155.829 82.0004C155.43 81.4192 155.074 80.8232 155.015 80.6891C154.867 80.2569 155.4 79.795 156.85 79.0797L158.24 78.4091L158.225 77.2915C158.196 75.7268 157.382 73.2829 156.805 72.9998C156.347 72.7912 155.725 71.9865 155.947 71.8971C156.169 71.8226 156.154 71.003 155.918 70.4218C155.74 70.0195 155.489 69.796 154.867 69.483C154.231 69.1552 154.039 68.9764 153.965 68.6336C153.921 68.3952 153.788 68.2015 153.684 68.2015C153.418 68.2015 153.048 67.7842 152.915 67.3223C152.856 67.1286 152.708 66.7262 152.575 66.4282C152.456 66.1302 152.368 65.7427 152.382 65.5788C152.441 65.0423 150.459 54.8943 150.178 54.2237C149.927 53.6575 149.113 53.4042 148.152 53.5979C146.465 53.9555 143.433 55.3712 142.693 56.1461C142.057 56.8166 142.131 57.3382 143.108 58.9029C143.551 59.633 144.838 61.7938 145.963 63.6863C147.19 65.7725 148.107 67.1882 148.285 67.2478C148.433 67.2925 148.714 67.6799 148.906 68.1121C149.246 68.887 149.306 69.9897 149.084 71.7481C148.995 72.4485 149.246 73.1488 149.69 73.3873C150.045 73.5959 149.823 73.9982 149.187 74.2665C148.758 74.4453 144.986 75.4586 142.131 76.159C141.969 76.2037 141.717 76.0696 141.466 75.8162C141.259 75.5927 140.844 75.2351 140.563 75.0264C140.06 74.639 140.031 74.639 139.099 74.8327C137.975 75.0711 137.605 75.3841 137.501 76.2335L137.413 76.8444L136.215 77.2319C135.209 77.5448 129.336 79.0797 129.1 79.0797C129.055 79.0797 129.026 78.9456 129.026 78.7817C129.026 78.5283 128.922 78.4836 128.419 78.4836C127.517 78.4836 127.043 77.9323 126.674 76.457C126.481 75.7119 126.422 75.2351 126.511 75.1457C126.733 74.9221 126.688 74.2217 126.422 73.5959C126.126 72.8955 125.18 69.7662 123.76 64.8486C123.138 62.7177 122.487 60.7358 122.31 60.4526C121.748 59.5734 120.668 58.5601 119.899 58.1727C117.547 56.9656 109.352 54.5665 109.352 55.088C109.352 55.1625 109.293 55.2371 109.234 55.2371C109.16 55.2371 109.204 54.6857 109.322 54.0002C109.604 52.5101 109.589 53.1955 109.441 41.7511C109.337 33.9575 109.278 32.3183 109.101 32.0352C108.553 31.2007 106.423 30.7537 104.767 31.1411Z" fill="#E94A29"/>
</g>
<defs>
<clipPath id="clip0_309_269">
<rect width="331" height="244" fill="white"/>
</clipPath>
</defs>
</svg>
