<svg width="389" height="191" viewBox="0 0 389 191" fill="none" xmlns="http://www.w3.org/2000/svg">
<path d="M15.8735 60.7308C-0.2608 76.8043 22.4891 119.742 17.6345 157.453C17.111 161.5 15.0644 174.932 19.2527 177.686C19.4907 177.854 20.6805 178.585 21.5372 178.023C24.2977 176.112 20.7757 161.162 21.442 160.263C22.1083 159.364 22.5843 160.319 23.9645 160.488C26.8677 160.825 22.965 175.943 25.9635 178.529C26.9629 179.372 28.8667 179.034 29.8662 177.91C32.8646 174.538 27.534 164.703 29.8662 162.567C31.056 161.5 51.3786 154.306 51.8069 154.193C70.8921 150.428 127.957 141.436 134.906 156.385C136.524 159.87 134.192 166.164 138.38 171.56C138.571 171.784 140.95 174.819 142.14 174.089C144.567 172.628 138.713 157.959 142.521 154.812C143.235 154.25 144.377 153.969 145.043 154.474C147.566 156.498 141.521 167.738 145.186 172.178C145.805 172.909 146.947 173.808 147.851 173.414C150.136 172.515 149.184 165.04 150.136 154.587C150.707 147.899 151.516 146.494 152.563 139.75C154.372 128.004 154.086 118.73 153.753 109.064C153.23 92.4845 151.564 95.8004 149.85 72.4207C149.279 64.4401 147.042 56.7405 145.948 48.8723C145.472 45.2754 142.283 42.9712 143.282 41.1165C150.945 27.01 137.476 46.1747 133.906 49.6591C125.911 57.5835 113.441 52.7502 100.305 49.6591C88.8826 46.9615 49.6652 38.2503 19.7286 57.8645C17.7297 59.1572 16.7302 59.8316 15.8259 60.7308H15.8735Z" fill="black"/>
<path d="M12.948 110.41C12.852 108.559 12.4678 106.245 11.0753 104.567C8.86659 101.964 6.32171 103.526 4.44907 101.616C1.27998 98.4344 2.48039 87.847 6.60981 80.7887C9.2027 76.3339 11.1714 76.3339 13.9083 70.8377C16.021 66.5564 17.6536 60.7709 16.7413 60.0767C15.4448 59.0932 8.67452 67.7135 4.44907 77.6645C2.00023 83.45 -1.45696 91.5497 0.655763 100.286C1.13593 102.311 2.72047 108.733 7.28204 110.526C9.58683 111.452 11.7476 110.815 12.948 110.353V110.41Z" fill="black"/>
<path d="M81.4464 44.5588C83.5741 45.7954 90.1462 16.4559 108.822 9.09288C124.756 2.85402 144.709 14.4325 145.654 24.4933C146.316 31.7439 137.049 37.6455 138.609 47.9874C138.704 48.5495 139.602 54.5073 141.588 54.7321C142.439 54.8445 142.77 53.8328 143.574 53.608C146.411 52.6525 152.605 62.6572 156.671 76.9897C159.744 87.7812 160.5 97.1114 161.541 96.999C162.581 96.8866 161.068 88.1747 165.512 82.7227C168.538 79.0131 171.328 80.4745 172.604 77.7766C175.016 72.6056 165.843 64.793 160.217 48.8867C155.961 36.8586 159.035 35.2849 155.394 26.1233C150.902 14.8821 140.737 3.47229 127.025 0.661991C112.605 -2.31693 99.1296 5.10226 90.9972 16.0062C82.0611 28.0343 79.9334 43.6595 81.4464 44.5588Z" fill="black"/>
<path d="M200.346 8.14062C200.746 8.17969 201.059 8.19922 201.283 8.19922L201.576 8.14062L202.162 8.31641L202.514 8.19922L202.631 8.25781C202.65 8.25781 202.729 8.23828 202.865 8.19922C203.148 8.31641 203.676 8.43359 204.447 8.55078C204.447 8.59961 204.525 8.63867 204.682 8.66797L204.799 8.60938C205.16 8.60938 206.137 9 207.729 9.78125C209.32 10.5625 210.766 11.9883 212.064 14.0586C212.611 15.5527 212.885 16.8613 212.885 17.9844C212.885 18.0234 212.865 18.043 212.826 18.043L212.885 18.3359V19.625C212.572 21.8516 212.24 23.375 211.889 24.1953C211.283 25.6992 210.463 27.125 209.428 28.4727C209.34 28.4824 208.988 28.873 208.373 29.6445C208.285 29.6445 207.973 29.8789 207.436 30.3477C207.152 30.582 206.762 30.8164 206.264 31.0508V31.1094L208.49 32.0469C208.49 32.0957 208.666 32.1934 209.018 32.3398L209.135 32.2812H209.193L209.135 32.3984C210.346 33.1309 211.166 34.1465 211.596 35.4453C211.908 36.1191 212.299 37.5254 212.768 39.6641H212.709L212.826 39.957L212.768 40.0742C212.807 40.4453 212.846 40.6602 212.885 40.7188C212.885 40.7578 212.865 40.7773 212.826 40.7773L212.885 41.0703V42.2422C212.963 42.8086 213.002 43.1211 213.002 43.1797V43.2969C213.002 43.3848 212.982 43.4629 212.943 43.5312L213.002 43.6484C213.002 43.6875 212.982 43.707 212.943 43.707C212.943 43.7852 212.963 43.8242 213.002 43.8242C212.963 44.2539 212.924 45.3086 212.885 46.9883H212.826C212.826 47.0273 212.846 47.0469 212.885 47.0469C212.885 48.8926 212.416 50.7871 211.479 52.7305C210.189 54.4785 209.193 55.4746 208.49 55.7188C207.221 56.4902 205.99 56.9785 204.799 57.1836C204.604 57.3398 203.08 57.6914 200.229 58.2383C198.441 58.5508 196.371 58.8047 194.018 59C192.992 58.9609 192.426 58.9023 192.318 58.8242C192.104 58.8633 191.947 58.8828 191.85 58.8828C191.752 58.8828 191.615 58.8047 191.439 58.6484C191.518 57.8281 191.557 57.2617 191.557 56.9492H191.615L191.557 56.832V56.5977C191.713 55.8652 191.791 55.377 191.791 55.1328L191.732 55.0156C191.801 54.8496 191.859 54.6152 191.908 54.3125L191.85 54.1953V54.0195C191.859 53.9414 191.898 53.9023 191.967 53.9023C191.889 53.7461 191.85 53.6094 191.85 53.4922C191.928 52.9258 191.986 52.5742 192.025 52.4375C191.986 52.3691 191.967 52.291 191.967 52.2031L192.025 51.9688L191.967 51.8516L192.143 51.207C192.143 51.168 192.123 51.1094 192.084 51.0312C192.123 49.8203 192.182 49.2148 192.26 49.2148L192.201 48.9805L192.26 48.7461C192.26 48.707 192.24 48.6484 192.201 48.5703L192.553 45.2891C192.553 45.1719 192.572 45.1133 192.611 45.1133L192.553 44.9961L192.904 40.0742V39.4297C192.904 39.3418 192.885 39.2637 192.846 39.1953C192.846 39.1562 192.865 39.1367 192.904 39.1367C192.826 38.7559 192.787 38.2285 192.787 37.5547V37.2617C192.787 37.2227 192.807 37.2031 192.846 37.2031L192.787 37.0859V36.4414C192.787 36.4023 192.807 36.3828 192.846 36.3828C192.846 36.3438 192.826 36.3242 192.787 36.3242L192.904 34.918C192.748 29.6738 192.611 26.373 192.494 25.0156C192.494 24.8105 192.514 24.4785 192.553 24.0195C192.475 23.6289 192.436 23.2383 192.436 22.8477V21.6758C192.436 21.6367 192.455 21.6172 192.494 21.6172C192.396 21.2656 192.338 21.0898 192.318 21.0898L192.377 20.7969C192.377 19.8789 192.338 18.9414 192.26 17.9844H192.318C192.279 17.9062 192.26 17.8477 192.26 17.8086C192.26 17.7695 192.279 17.7109 192.318 17.6328C192.201 16.8711 192.143 15.7969 192.143 14.4102C192.143 14.3711 192.162 14.3125 192.201 14.2344L192.084 13.6484C192.162 13.4043 192.201 13.0332 192.201 12.5352C192.084 12.1152 192.025 11.8223 192.025 11.6562L192.084 11.5391L192.025 11.1875C192.025 11.1484 192.045 11.1289 192.084 11.1289L192.025 11.0117V10.3672C192.025 10.3184 192.748 10.0254 194.193 9.48828C194.77 9.25391 195.238 9.11719 195.6 9.07812C195.6 8.9707 196.342 8.75586 197.826 8.43359C198.383 8.23828 199.223 8.14062 200.346 8.14062ZM200.404 19.8594L200.463 19.9766C200.463 20.0938 200.443 20.1523 200.404 20.1523C200.404 20.1914 200.424 20.25 200.463 20.3281C200.463 20.4648 200.443 20.6406 200.404 20.8555L200.521 22.3789H200.463L200.521 22.4961V22.6719C200.521 22.8965 200.502 23.0332 200.463 23.082C200.512 24.0977 200.57 24.7031 200.639 24.8984C200.6 25.0547 200.58 25.1914 200.58 25.3086C200.58 25.4355 200.6 25.5332 200.639 25.6016C200.6 25.8164 200.58 25.9922 200.58 26.1289C200.619 26.5293 200.639 26.7637 200.639 26.832H200.58L200.697 27.418L200.639 27.7695V27.8867L200.697 28.1797C201.518 27.9941 202.514 27.4668 203.686 26.5977C204.428 25.7383 204.799 25.1914 204.799 24.957C204.799 24.8301 204.955 24.4395 205.268 23.7852C205.189 23.7852 205.15 23.7461 205.15 23.668C205.229 23.541 205.268 23.4238 205.268 23.3164C205.268 22.9551 205.092 22.584 204.74 22.2031V22.1445H204.799L204.916 22.2031V22.0859L204.799 21.9102V21.8516C204.799 21.8125 204.818 21.793 204.857 21.793C204.574 21.0801 204.125 20.6113 203.51 20.3867C202.602 19.9961 201.723 19.8008 200.873 19.8008L200.756 19.8594C200.688 19.8203 200.609 19.8008 200.521 19.8008L200.404 19.8594ZM201.107 38.375V38.8438C201.107 38.8828 201.088 38.9023 201.049 38.9023C201.088 39.0977 201.127 39.1953 201.166 39.1953L201.107 39.4883V42.4766C201.107 42.5645 201.127 42.6426 201.166 42.7109L201.107 42.8281C201.146 43.5898 201.186 44.0781 201.225 44.293C201.186 44.4395 201.166 44.5957 201.166 44.7617V45.1719C201.166 45.2598 201.186 45.3379 201.225 45.4062C201.225 45.4453 201.205 45.4648 201.166 45.4648L201.225 45.7578C201.264 46.7148 201.283 47.2422 201.283 47.3398C201.244 47.418 201.225 47.4766 201.225 47.5156C201.225 47.5547 201.244 47.5742 201.283 47.5742C201.283 47.6523 201.264 47.6914 201.225 47.6914C201.264 48.1504 201.283 48.4824 201.283 48.6875V49.918C201.684 49.918 202.328 49.7422 203.217 49.3906C203.822 49.2734 204.662 48.6094 205.736 47.3984C206.205 46.8906 206.439 46.5977 206.439 46.5195C206.674 46.0312 206.889 45.5039 207.084 44.9375C207.201 44.5566 207.26 44.127 207.26 43.6484V42.0664C207.26 41.793 206.986 41.2266 206.439 40.3672C206.439 40.4062 206.42 40.4258 206.381 40.4258L206.322 40.3086C206.322 40.2695 206.342 40.25 206.381 40.25C205.961 39.5469 205.062 38.9219 203.686 38.375C202.865 38.2578 202.338 38.1992 202.104 38.1992H202.045L201.635 38.2578V38.1992C201.42 38.3164 201.244 38.375 201.107 38.375ZM226.376 6.22168C227.821 6.22168 229.252 6.71484 230.668 7.70117C231.869 9.19531 232.528 10.1816 232.646 10.6602C233.095 12.4082 233.397 14.1123 233.554 15.7725C233.759 18.3701 233.964 21.4268 234.169 24.9424C234.13 25.2842 234.174 27.2568 234.301 30.8604C234.408 35.4795 234.345 39.8252 234.11 43.8975L233.861 46.3438H233.935C233.729 48.4043 233.48 50.1523 233.188 51.5879C232.875 53.4824 232.201 55.1133 231.166 56.4805C229.711 58.1113 227.523 58.9902 224.604 59.1172C222.328 59.0098 220.492 58.5361 219.096 57.6963C218.246 57.2275 217.396 56.2559 216.547 54.7812C215.639 52.5938 215.043 49.8789 214.76 46.6367C214.555 43.2773 214.413 38.3945 214.335 31.9883C214.335 27.877 214.398 24.3613 214.525 21.4414C214.691 16.9297 214.96 14.0635 215.331 12.8428C216.083 11.2021 216.898 10.0059 217.777 9.25391C218.588 8.48242 219.652 7.74512 220.971 7.04199C222.064 6.55371 223.866 6.28027 226.376 6.22168ZM226.977 16.2119C226.469 14.1904 226.059 13.1797 225.746 13.1797H225.688C225.629 13.1797 225.443 13.4971 225.131 14.1318C224.545 15.8115 224.154 17.4424 223.959 19.0244C223.549 22.7451 223.344 25.1621 223.344 26.2754L223.285 34.4199C223.246 34.4199 223.207 35.2109 223.168 36.793C223.207 42.3301 223.31 45.9092 223.476 47.5303C224.091 50.4404 224.745 51.8711 225.438 51.8223C225.829 51.832 226.171 51.5098 226.464 50.8555C227.108 49.2832 227.504 43.7314 227.65 34.2002C227.602 33.7803 227.582 32.667 227.592 30.8604C227.611 29.0537 227.631 27.7207 227.65 26.8613C227.445 21.4707 227.221 17.9209 226.977 16.2119ZM236.527 56.334L236.234 55.8945C236.43 55.1816 236.684 54.0342 236.996 52.4521C237.035 52.4521 237.094 52.1641 237.172 51.5879L237.113 51.4707V50.8848L237.172 50.5918L237.055 50.5186C237.172 50.3135 237.23 50.1426 237.23 50.0059L237.172 49.7129L237.23 49.5957C237.23 49.5566 237.211 49.498 237.172 49.4199C237.211 49.2051 237.23 49.0488 237.23 48.9512C237.23 48.9121 237.211 48.8535 237.172 48.7754C237.279 48.6289 237.357 47.833 237.406 46.3877L237.348 46.2705L237.406 46.1533C237.367 45.9971 237.348 45.8604 237.348 45.7432C237.348 45.7041 237.367 45.6846 237.406 45.6846C237.367 45.1768 237.309 44.918 237.23 44.9082L237.289 44.8057L237.23 44.6738C237.309 44.5273 237.387 44.3027 237.465 44C237.465 43.9609 237.445 43.9365 237.406 43.9268L237.465 43.6484L237.406 43.3408L237.523 43.2969L237.465 43.1797V42.3008C237.465 42.2617 237.484 42.2422 237.523 42.2422C237.484 42.1641 237.465 42.1055 237.465 42.0664C237.465 41.8711 237.504 41.7734 237.582 41.7734C237.582 41.7344 237.562 41.7148 237.523 41.7148C237.582 40.5137 237.66 39.9131 237.758 39.9131L237.699 39.7959C237.729 39.3271 237.768 39.0977 237.816 39.1074C237.816 39.0684 237.797 39.0439 237.758 39.0342C237.992 37.4521 238.109 35.8604 238.109 34.2588H238.168L238.109 34.1416C238.109 34.1025 238.129 34.083 238.168 34.083L238.109 33.79V32.6182C238.109 32.5791 238.129 32.5596 238.168 32.5596L238.109 32.4424V31.8564C238.109 31.7295 238.09 31.6318 238.051 31.5635C238.08 31.3584 238.119 30.8896 238.168 30.1572C238.129 29.415 238.09 29.0439 238.051 29.0439L238.109 28.751V26.9932C238.109 26.8564 238.09 26.6807 238.051 26.4658C238.09 26.417 238.109 26.2803 238.109 26.0557L238.051 25.8213H238.109L238.051 25.7041V25.001C238.051 24.6104 238.09 24.2197 238.168 23.8291L237.875 19.7715V19.5371L237.816 19.2441H237.875C237.484 16.002 237.289 14.21 237.289 13.8682C237.328 13.79 237.348 13.7314 237.348 13.6924C237.309 13.5459 237.289 13.3896 237.289 13.2236H237.348L237.289 13.1064V11.6416C237.211 11.3584 237.094 10.2354 236.938 8.27246C236.977 8.11621 236.996 7.97949 236.996 7.8623C236.908 7.85254 236.85 7.37891 236.82 6.44141C236.859 6.45117 236.879 6.43652 236.879 6.39746L238.168 6.77832L238.285 6.73438C238.363 6.7832 238.422 6.80762 238.461 6.80762L238.578 6.76367L239.633 7.07129L239.75 7.02734C239.828 7.06641 239.887 7.09082 239.926 7.10059C240.004 7.06152 240.062 7.04688 240.102 7.05664V7.11523C240.141 7.11523 240.16 7.0957 240.16 7.05664L240.453 7.14453H240.512C240.6 7.1543 240.678 7.13965 240.746 7.10059L240.863 7.17383C240.941 7.13477 241 7.12012 241.039 7.12988C241.078 7.12988 241.098 7.14941 241.098 7.18848C242.387 7.16895 243.227 7.13477 243.617 7.08594L243.734 7.15918C243.988 7.10059 244.164 7.07617 244.262 7.08594H244.32L244.672 7.64258C244.672 7.68164 244.652 7.70117 244.613 7.70117C244.926 9.15625 245.121 10.3232 245.199 11.2021C245.199 11.2412 245.18 11.2559 245.141 11.2461C245.18 11.7344 245.258 12.1152 245.375 12.3887L245.316 12.4912C245.893 16.1533 246.518 18.9951 247.191 21.0166C247.191 21.1533 247.348 21.6367 247.66 22.4668L247.602 22.5693L247.895 23.0088C248.012 23.0186 248.09 22.3984 248.129 21.1484C248.09 21.0801 248.07 20.9824 248.07 20.8555H248.129C248.09 20.4648 248.051 20.2695 248.012 20.2695L248.07 19.9766V19.8594C248.07 19.6543 248.051 19.3223 248.012 18.8633H248.07C248.07 18.8242 248.051 18.8047 248.012 18.8047L248.07 18.5117C248.07 18.4727 248.051 18.4141 248.012 18.3359C248.051 18.2676 248.07 18.1895 248.07 18.1016C248.07 18.0234 248.051 17.9844 248.012 17.9844L248.07 17.5742V16.8125C248.07 16.5586 248.09 16.3047 248.129 16.0508C248.08 15.6992 248.041 15.4844 248.012 15.4062C248.051 15.1914 248.07 15.0352 248.07 14.9375C248.07 14.7617 248.051 14.3125 248.012 13.5898H248.07C248.031 13.4727 247.992 13.4092 247.953 13.3994C248.031 13.0088 248.07 12.4863 248.07 11.832C248.031 11.4902 248.012 11.2949 248.012 11.2461H248.07L248.012 11.1289V10.4844C248.012 10.4453 248.031 10.4258 248.07 10.4258L248.012 10.3086C248.012 9.91797 248.051 9.72266 248.129 9.72266L248.07 9.13672V8.375C248.07 8.15039 248.051 7.83789 248.012 7.4375C248.051 7.35937 248.07 7.30078 248.07 7.26172L247.953 6.30957L248.012 6.32422C247.973 6.23633 247.953 6.17285 247.953 6.13379C247.953 5.7334 247.914 5.32324 247.836 4.90332H247.895L247.66 3.83398C247.699 3.76563 247.719 3.6875 247.719 3.59961C247.719 3.50195 247.641 3.34082 247.484 3.11621V2.70605C247.484 2.62793 247.523 2.58887 247.602 2.58887L248.188 2.64746C248.578 2.93066 249.32 3.19922 250.414 3.45312C250.453 3.46289 250.512 3.44824 250.59 3.40918L251.293 3.58496C251.332 3.58496 251.352 3.56543 251.352 3.52637C251.898 3.62402 252.211 3.70703 252.289 3.77539C252.621 3.76563 252.895 3.77051 253.109 3.79004L253.344 3.80469C253.432 3.81445 253.51 3.7998 253.578 3.76074C253.656 3.80957 253.715 3.83398 253.754 3.83398L253.988 3.79004L254.281 3.87793C254.408 3.80957 254.525 3.78027 254.633 3.79004L255.98 3.89258C256.576 3.74609 256.986 3.67773 257.211 3.6875L257.387 3.70215C257.465 3.71191 257.504 3.75586 257.504 3.83398C257.455 3.83398 257.377 3.94629 257.27 4.1709C257.27 4.20996 257.289 4.22949 257.328 4.22949C257.172 5.52832 257.035 6.33887 256.918 6.66113L256.977 6.77832V6.89551C256.977 6.93457 256.957 6.9541 256.918 6.9541L256.977 7.07129C256.977 7.18848 256.918 7.33984 256.801 7.52539C256.801 7.56445 256.82 7.58887 256.859 7.59863C256.82 8.29199 256.762 8.63867 256.684 8.63867C256.684 8.67773 256.703 8.69727 256.742 8.69727C256.742 8.72656 256.723 8.84375 256.684 9.04883C256.723 9.44922 256.762 9.68359 256.801 9.75195C256.723 9.87891 256.684 9.99609 256.684 10.1035V10.1621C256.684 10.3184 256.703 10.3965 256.742 10.3965L256.684 10.8066V11.0996C256.684 11.5488 256.664 11.9541 256.625 12.3154C256.664 12.5693 256.684 12.8672 256.684 13.209C256.684 13.2871 256.664 13.3213 256.625 13.3115L256.684 13.6191V14.1465C256.684 14.3125 256.703 14.5273 256.742 14.791C256.684 15.0937 256.625 15.2451 256.566 15.2451L256.625 15.6553V17.7061C256.625 17.7939 256.605 17.8721 256.566 17.9404C256.605 18.0088 256.625 18.0869 256.625 18.1748V18.2334C256.625 18.2725 256.605 18.292 256.566 18.292L256.625 18.4092V18.4678C256.625 18.5557 256.605 18.6338 256.566 18.7021L256.625 18.8193L256.566 19.2295L256.625 19.5225H256.566L256.625 19.6396V20.3428C256.625 20.3818 256.605 20.4014 256.566 20.4014L256.625 20.5186V21.1045C256.625 21.4658 256.605 21.9736 256.566 22.6279L256.625 22.7451C256.586 22.8135 256.566 22.8916 256.566 22.9795C256.566 23.0186 256.586 23.0381 256.625 23.0381L256.566 23.3311V23.5654C256.566 23.6533 256.586 23.7314 256.625 23.7998C256.625 23.8389 256.605 23.8584 256.566 23.8584C256.605 24.0244 256.645 24.4785 256.684 25.2207L256.625 25.3232L256.742 25.6895L256.684 25.8066C256.684 25.8457 256.703 25.8652 256.742 25.8652C256.742 25.9043 256.723 25.9629 256.684 26.041C256.732 26.8906 256.791 27.501 256.859 27.8721C256.811 27.9111 256.771 28.1797 256.742 28.6777L256.801 28.9707C256.801 29.0098 256.781 29.0293 256.742 29.0293L256.801 29.3223C256.801 29.5371 256.781 29.8105 256.742 30.1426C256.82 30.543 256.859 30.8994 256.859 31.2119V31.5049C256.859 31.7783 256.82 31.9883 256.742 32.1348C256.82 32.1445 256.859 32.1885 256.859 32.2666V32.6182C256.859 32.6572 256.84 32.6719 256.801 32.6621C256.801 32.7012 256.82 32.7256 256.859 32.7354L256.801 33.1309V35.3574C256.801 35.5723 256.781 35.8457 256.742 36.1777C256.781 36.2461 256.801 36.3242 256.801 36.4121C256.801 36.4512 256.781 36.5098 256.742 36.5879C256.781 36.8027 256.801 36.9785 256.801 37.1152V37.4082C256.801 37.5742 256.781 37.7891 256.742 38.0527C256.742 38.0918 256.762 38.1113 256.801 38.1113L256.742 38.4043V39.2832L256.801 39.6348C256.801 39.6738 256.781 39.6934 256.742 39.6934L256.918 41.1729L256.859 41.9932C256.898 42.4814 256.918 42.9697 256.918 43.458H256.859L256.918 43.5752V43.8682C256.918 43.9854 256.898 44.0439 256.859 44.0439C256.908 44.5811 256.947 44.9131 256.977 45.04C256.977 45.0791 256.957 45.0986 256.918 45.0986L257.035 46.168C256.996 46.4121 256.977 46.6611 256.977 46.915V47.4424L257.035 48.043L256.977 48.0283C257.006 48.0967 257.045 48.3359 257.094 48.7461H257.035L257.094 48.8633V52.2031C257.094 53.2188 257.035 53.7217 256.918 53.7119L253.754 53.5801C253.676 53.5312 253.617 53.5068 253.578 53.5068C253.5 53.5459 253.441 53.5605 253.402 53.5508V53.4922L253.285 53.5508L252.992 53.5215C252.143 53.5215 251.01 53.6094 249.594 53.7852C249.32 53.4336 249.164 53.0332 249.125 52.584C249.125 52.5449 249.145 52.5254 249.184 52.5254C249.027 49.9473 248.812 47.8965 248.539 46.373C248.344 45.1816 248.031 43.5361 247.602 41.4365C247.484 40.4795 247.074 38.8291 246.371 36.4854C246.254 36.3486 246 35.3135 245.609 33.3799L245.492 33.3652C245.414 34.1465 245.355 34.5322 245.316 34.5225C245.316 34.5615 245.336 34.5859 245.375 34.5957C245.219 36.4805 245.121 37.9355 245.082 38.9609C245.043 38.9609 245.023 39.0391 245.023 39.1953C245.023 39.2832 245.043 39.498 245.082 39.8398C245.043 40.1719 245.023 40.4453 245.023 40.6602C245.023 40.6992 245.043 40.7578 245.082 40.8359L245.023 41.1875V41.9492C245.023 42.0859 245.043 42.2617 245.082 42.4766C245.004 42.6719 244.965 43.0771 244.965 43.6924V44.5713L245.023 44.9961L244.965 44.9814C245.004 45.0693 245.023 45.1328 245.023 45.1719L244.965 45.8604L245.023 45.9922C244.984 46.0605 244.965 46.1143 244.965 46.1533C245.004 46.2803 245.043 46.3438 245.082 46.3438L245.023 46.6367V47.5156C245.023 47.7012 245.043 47.8965 245.082 48.1016C245.043 48.2578 245.023 48.3945 245.023 48.5117C245.062 48.7949 245.102 48.9707 245.141 49.0391C245.141 49.0781 245.121 49.0977 245.082 49.0977L245.141 49.8008V50.2109L245.199 50.5186L245.141 50.5039C245.219 50.9336 245.277 51.3291 245.316 51.6904L245.258 51.9834V52.3936L245.492 54.2686L245.551 54.5762C245.551 54.6152 245.531 54.6299 245.492 54.6201L245.609 55.9824L245.492 56.0264L243.91 55.9092C242.631 55.8115 241.518 55.8213 240.57 55.9385C240.268 55.958 239.76 55.9385 239.047 55.8799C238.969 55.9482 238.637 55.9824 238.051 55.9824L236.527 56.334ZM269.062 59.6152C267.89 59.5957 266.781 59.5371 265.736 59.4395C262.953 59.293 261.361 59.2539 260.961 59.3223C260.609 59.4004 260.355 59.4395 260.199 59.4395L259.892 58.9121C259.755 55.2109 259.716 53.1602 259.774 52.7598C259.745 49.3125 259.726 47.3936 259.716 47.0029C259.706 46.5146 259.638 45.8701 259.511 45.0693C259.413 44.5615 259.369 44.0635 259.379 43.5752L259.408 42.96C259.408 42.8818 259.447 42.8428 259.525 42.8428C259.594 42.8428 259.75 42.8818 259.994 42.96C261.146 43.0381 262.108 43.1357 262.88 43.2529C263.339 43.3311 263.974 43.3701 264.784 43.3701C266.581 43.3701 267.89 42.7061 268.71 41.3779C268.993 40.5381 269.062 39.4053 268.915 37.9795C268.896 36.71 268.446 35.1719 267.567 33.3652C267.167 32.6621 266.449 32.3105 265.414 32.3105C264.652 32.2812 263.9 32.1055 263.158 31.7832C262.533 31.5684 262.001 31.0605 261.562 30.2598C261.073 28.9707 260.751 27.0566 260.595 24.5176C260.233 20.7578 259.989 16.3633 259.862 11.334C259.843 9.54688 259.965 8.11133 260.229 7.02734C260.424 6.25586 260.663 5.69922 260.946 5.35742C261.425 4.49805 262.372 3.87305 263.788 3.48242C264.999 3.25781 266.454 3.17969 268.153 3.24805C269.53 3.29688 270.932 3.55566 272.357 4.02441C274.105 4.50293 275.453 5.30371 276.4 6.42676C277.25 7.87207 277.729 9.20508 277.836 10.4258C277.885 10.8945 277.914 11.5732 277.924 12.4619C277.924 12.6865 277.938 13.4873 277.968 14.8643C277.968 15.4404 278.065 16.3193 278.261 17.501C278.319 17.833 278.373 18.1797 278.422 18.541C278.48 18.9023 278.607 19.5371 278.803 20.4453C278.998 21.3535 279.076 22.5205 279.037 23.9463C278.91 24.0732 278.178 23.9023 276.84 23.4336C273.793 22.7402 271.293 22.418 269.34 22.4668C268.676 22.3887 268.305 22.3496 268.227 22.3496L268.212 21.8223C268.3 21.207 268.383 20.543 268.461 19.8301C268.666 18.1504 268.734 16.6465 268.666 15.3184C268.617 13.9414 268.388 12.8477 267.978 12.0371C267.675 11.4219 267.04 11.1484 266.073 11.2168C265.546 11.2168 265.185 12.291 264.989 14.4395C264.901 16.1289 264.926 17.9453 265.062 19.8887C265.15 22.584 265.331 24.3613 265.604 25.2207C265.937 25.8457 266.615 26.1777 267.641 26.2168C268.012 26.2754 268.441 26.2363 268.93 26.0996V26.1582C269.662 25.8652 270.36 25.7285 271.024 25.748C272.333 25.9141 273.183 26.1289 273.573 26.3926C273.974 26.5977 274.252 26.8125 274.408 27.0371C274.701 27.3496 274.97 27.9258 275.214 28.7656C275.468 29.2637 275.888 30.875 276.474 33.5996C276.718 34.7715 276.889 35.9434 276.986 37.1152C277.289 41.8223 277.421 45.5332 277.382 48.248C277.421 49.5273 277.313 50.9971 277.06 52.6572C276.786 54.6299 276.044 56.4023 274.833 57.9746C274.042 58.6875 273.324 59.1562 272.68 59.3809C272.113 59.5371 270.907 59.6152 269.062 59.6152Z" fill="black"/>
<path d="M208.677 71.4434C211.834 70.8086 218.288 71.248 228.037 72.7617L228.135 72.957C227.549 77.1725 227.158 81.4368 226.963 85.75C226.833 88.7285 226.963 91.8535 227.354 95.125L227.012 95.3936C221.283 95.0843 217.067 95.1901 214.365 95.7109C212.005 96.2155 209.889 96.9967 208.018 98.0547C206.65 99.2591 205.674 100.952 205.088 103.133C204.323 107.967 203.916 113.989 203.867 121.199C203.737 132.267 203.818 138.354 204.111 139.461H204.014C204.339 141.788 204.632 143.351 204.893 144.148C205.332 145.76 205.951 147.257 206.748 148.641C207.513 150.35 208.774 151.562 210.532 152.278C212.095 152.783 213.763 153.035 215.537 153.035C216.921 153.035 217.897 151.961 218.467 149.812C218.727 148.608 218.89 147.566 218.955 146.688L219.053 141.219C219.036 141.072 218.898 140.934 218.638 140.804C215.789 140.625 213.617 140.568 212.119 140.633C209.661 140.893 208.359 141.023 208.213 141.023C207.822 140.877 207.66 138.403 207.725 133.602C207.822 132.348 207.782 129.004 207.603 123.567C207.277 118.75 207.114 116.243 207.114 116.048C207.114 115.462 207.733 115.169 208.97 115.169C213.869 115.478 217.026 115.641 218.442 115.657C220.9 115.722 223.04 115.771 224.863 115.804C227.012 115.836 228.192 115.918 228.403 116.048L228.501 116.243C228.452 131.299 228.46 139.949 228.525 142.195C228.607 149.031 228.843 154.345 229.233 158.138C229.624 161.93 229.779 164.542 229.697 165.975C226.312 166.235 221.494 166.642 215.244 167.195C210.687 167.749 206.797 167.83 203.574 167.439C200.531 166.984 198.301 166.121 196.885 164.852C195.794 164.217 194.98 163.338 194.443 162.215C193.32 160.587 192.62 158.935 192.344 157.259C192.002 156.071 191.595 152.506 191.123 146.565C190.863 139.371 190.732 132.804 190.732 126.863C190.732 122.973 190.96 117.309 191.416 109.871C191.807 102.352 192.165 97.599 192.49 95.6133C193.076 90.9746 193.654 87.6787 194.224 85.7256C194.826 83.5446 195.745 81.2415 196.982 78.8164C197.666 76.9121 198.903 75.3171 200.693 74.0312C202.907 72.7943 205.568 71.9316 208.677 71.4434ZM253.696 79.0361C256.105 79.0361 258.49 79.8581 260.85 81.502C262.852 83.9922 263.95 85.6361 264.146 86.4336C264.894 89.347 265.399 92.1872 265.659 94.9541C266.001 99.2835 266.343 104.378 266.685 110.237C266.619 110.807 266.693 114.095 266.904 120.101C267.083 127.799 266.978 135.042 266.587 141.829L266.172 145.906H266.294C265.952 149.34 265.537 152.254 265.049 154.646C264.528 157.804 263.405 160.522 261.68 162.801C259.255 165.519 255.609 166.984 250.742 167.195C246.95 167.016 243.89 166.227 241.562 164.827C240.146 164.046 238.73 162.426 237.314 159.969C235.801 156.323 234.808 151.798 234.336 146.395C233.994 140.796 233.758 132.658 233.628 121.98C233.628 115.128 233.734 109.269 233.945 104.402C234.222 96.8828 234.67 92.1058 235.288 90.0713C236.541 87.3369 237.9 85.3431 239.365 84.0898C240.716 82.804 242.49 81.5752 244.688 80.4033C246.51 79.5895 249.513 79.1338 253.696 79.0361ZM254.697 95.6865C253.851 92.3174 253.167 90.6328 252.646 90.6328H252.549C252.451 90.6328 252.142 91.1618 251.621 92.2197C250.645 95.0192 249.993 97.7373 249.668 100.374C248.984 106.575 248.643 110.604 248.643 112.459L248.545 126.033C248.48 126.033 248.415 127.352 248.35 129.988C248.415 139.217 248.586 145.182 248.862 147.884C249.888 152.734 250.978 155.118 252.134 155.037C252.785 155.053 253.354 154.516 253.843 153.426C254.917 150.805 255.576 141.552 255.82 125.667C255.739 124.967 255.706 123.112 255.723 120.101C255.755 117.09 255.788 114.868 255.82 113.436C255.479 104.451 255.104 98.5348 254.697 95.6865ZM285.728 73.543H286.094C286.208 73.543 286.265 73.6406 286.265 73.8359C285.369 80.3952 284.792 87.8171 284.531 96.1016C284.661 113.354 284.784 131.453 284.897 150.398C287.404 150.968 292.148 150.87 299.131 150.105C301.621 149.78 304.38 149.292 307.407 148.641C308.075 148.38 308.726 148.315 309.36 148.445H309.458C309.458 149.031 309.303 150.301 308.994 152.254C308.343 157.186 308.132 161.808 308.359 166.121C308.49 166.756 308.555 167.114 308.555 167.195V167.293L308.457 167.488C305.625 167.309 303.086 167.146 300.84 167C291.937 166.805 283.416 166.74 275.278 166.805C274.106 166.854 272.324 167.016 269.932 167.293C271.055 157.934 271.779 145.206 272.104 129.109C272.17 127.124 272.259 117.26 272.373 99.5195C272.438 96.069 272.349 90.7956 272.104 83.6992C271.925 79.5651 271.657 76.3018 271.299 73.9092C273.447 74.1208 276.629 74.194 280.845 74.1289C283.628 73.7383 285.256 73.543 285.728 73.543ZM348.447 167.952C346.673 168.017 344.232 167.985 341.123 167.854C334.971 167.464 329.99 167.122 326.182 166.829C320.811 166.927 317.555 167.033 316.416 167.146C316.237 167.146 316.107 166.634 316.025 165.608C316.351 156.901 316.644 148.226 316.904 139.583C317.067 134.944 317.002 125.179 316.709 110.286C316.497 99.0068 315.684 88.5007 314.268 78.7676L314.463 78.6455C320.68 78.5804 326.247 78.4827 331.162 78.3525C337.412 77.8805 340.602 77.612 340.732 77.5469L343.857 77.0342C344.801 76.8877 345.322 76.9284 345.42 77.1562C345.583 77.4655 345.542 78.0596 345.298 78.9385C345.054 79.8174 344.899 80.6637 344.834 81.4775C344.036 84.8792 343.776 88.7285 344.053 93.0254C344.183 95.0111 344.313 96.3132 344.443 96.9316C344.378 96.9316 344.46 97.3955 344.688 98.3232C344.915 99.251 345.094 100.333 345.225 101.57C345.273 101.912 344.688 102.034 343.467 101.937C341.188 101.709 339.561 101.554 338.584 101.473C337.575 101.375 335.036 101.22 330.967 101.009C330.739 101.025 330.576 101.326 330.479 101.912C330.397 103.458 330.365 104.891 330.381 106.209C330.267 108.39 330.332 109.952 330.576 110.896C330.837 111.694 332.041 112.044 334.189 111.946C335.085 111.946 335.964 111.914 336.826 111.849C338.389 111.637 339.3 111.434 339.561 111.238C339.626 111.238 339.723 111.271 339.854 111.336L339.756 112.508C339.626 113.631 339.805 116.292 340.293 120.491C340.667 123.063 340.879 124.446 340.928 124.642L340.635 124.764C340.423 124.78 339.186 124.804 336.924 124.837C335.768 124.886 334.336 124.878 332.627 124.812C330.804 125.008 329.567 125.219 328.916 125.447C328.542 125.464 328.314 126.001 328.232 127.059C328.167 128.54 328.265 133.203 328.525 141.048C328.46 141.048 328.428 141.08 328.428 141.146C328.428 141.666 328.794 141.91 329.526 141.878C334.686 141.862 337.607 141.772 338.291 141.609C339.186 141.642 341.172 141.463 344.248 141.072C344.492 141.056 345.241 140.926 346.494 140.682C346.82 140.714 346.982 140.804 346.982 140.95C347.243 143.489 347.373 147.037 347.373 151.595C347.471 155.029 347.65 158.219 347.91 161.165C348.073 163.411 348.382 165.079 348.838 166.17C349.033 166.463 349.131 166.951 349.131 167.635C349.033 167.83 348.936 167.928 348.838 167.928L348.447 167.952ZM368.101 168.025C366.147 167.993 364.3 167.895 362.559 167.732C357.92 167.488 355.267 167.423 354.6 167.537C354.014 167.667 353.59 167.732 353.33 167.732L352.817 166.854C352.59 160.685 352.524 157.267 352.622 156.6C352.573 150.854 352.541 147.656 352.524 147.005C352.508 146.191 352.394 145.117 352.183 143.782C352.02 142.936 351.947 142.106 351.963 141.292L352.012 140.267C352.012 140.136 352.077 140.071 352.207 140.071C352.321 140.071 352.581 140.136 352.988 140.267C354.909 140.397 356.512 140.56 357.798 140.755C358.563 140.885 359.621 140.95 360.972 140.95C363.966 140.95 366.147 139.843 367.515 137.63C367.987 136.23 368.101 134.342 367.856 131.966C367.824 129.85 367.075 127.286 365.61 124.275C364.943 123.104 363.747 122.518 362.021 122.518C360.752 122.469 359.499 122.176 358.262 121.639C357.22 121.281 356.333 120.434 355.601 119.1C354.787 116.951 354.25 113.761 353.989 109.529C353.387 103.263 352.98 95.9388 352.769 87.5566C352.736 84.5781 352.939 82.1855 353.379 80.3789C353.704 79.0931 354.103 78.1654 354.575 77.5957C355.373 76.1634 356.951 75.1217 359.312 74.4707C361.33 74.0964 363.755 73.9661 366.587 74.0801C368.882 74.1615 371.217 74.5928 373.594 75.374C376.507 76.1715 378.753 77.5062 380.332 79.3779C381.748 81.7868 382.546 84.0085 382.725 86.043C382.806 86.8242 382.855 87.9554 382.871 89.4365C382.871 89.8109 382.896 91.1455 382.944 93.4404C382.944 94.4007 383.107 95.8656 383.433 97.835C383.53 98.3883 383.62 98.9661 383.701 99.5684C383.799 100.171 384.01 101.229 384.336 102.742C384.661 104.256 384.792 106.201 384.727 108.577C384.515 108.789 383.294 108.504 381.064 107.723C375.986 106.567 371.82 106.03 368.564 106.111C367.458 105.981 366.839 105.916 366.709 105.916L366.685 105.037C366.831 104.012 366.969 102.905 367.1 101.717C367.441 98.9173 367.555 96.4108 367.441 94.1973C367.36 91.9023 366.978 90.0794 366.294 88.7285C365.789 87.7031 364.731 87.2474 363.12 87.3613C362.241 87.3613 361.639 89.1517 361.313 92.7324C361.167 95.5482 361.208 98.5755 361.436 101.814C361.582 106.307 361.883 109.269 362.339 110.701C362.892 111.743 364.023 112.296 365.732 112.361C366.351 112.459 367.067 112.394 367.881 112.166V112.264C369.102 111.775 370.265 111.548 371.372 111.58C373.553 111.857 374.969 112.215 375.62 112.654C376.287 112.996 376.751 113.354 377.012 113.729C377.5 114.249 377.948 115.21 378.354 116.609C378.778 117.439 379.478 120.125 380.454 124.666C380.861 126.619 381.146 128.572 381.309 130.525C381.813 138.37 382.033 144.555 381.968 149.08C382.033 151.212 381.854 153.662 381.431 156.429C380.975 159.716 379.738 162.671 377.72 165.291C376.401 166.479 375.205 167.26 374.131 167.635C373.187 167.895 371.177 168.025 368.101 168.025Z" fill="black"/>
</svg>
